<svg width="62" height="63" viewBox="0 0 62 63" fill="none" xmlns="http://www.w3.org/2000/svg">
<rect x="0.5" y="0.539978" width="61" height="61" rx="30.5" fill="#131212"/>
<rect x="0.5" y="0.539978" width="61" height="61" rx="30.5" stroke="#1A1A1A"/>
<path d="M31 19.04H27C25.9391 19.04 24.9217 19.4614 24.1716 20.2116C23.4214 20.9617 23 21.9791 23 23.04C23 24.1008 23.4214 25.1183 24.1716 25.8684C24.9217 26.6186 25.9391 27.04 27 27.04M31 19.04V27.04M31 19.04H35C35.5253 19.04 36.0454 19.1434 36.5307 19.3445C37.016 19.5455 37.457 19.8401 37.8284 20.2116C38.1999 20.583 38.4945 21.0239 38.6955 21.5092C38.8965 21.9945 39 22.5147 39 23.04C39 23.5653 38.8965 24.0854 38.6955 24.5707C38.4945 25.056 38.1999 25.497 37.8284 25.8684C37.457 26.2398 37.016 26.5345 36.5307 26.7355C36.0454 26.9365 35.5253 27.04 35 27.04M31 27.04H27M31 27.04H35M31 27.04V35.04M27 27.04C25.9391 27.04 24.9217 27.4614 24.1716 28.2116C23.4214 28.9617 23 29.9791 23 31.04C23 32.1008 23.4214 33.1183 24.1716 33.8684C24.9217 34.6186 25.9391 35.04 27 35.04M35 27.04C34.4747 27.04 33.9546 27.1434 33.4693 27.3445C32.984 27.5455 32.543 27.8401 32.1716 28.2116C31.8001 28.583 31.5055 29.0239 31.3045 29.5092C31.1035 29.9945 31 30.5147 31 31.04C31 31.5653 31.1035 32.0854 31.3045 32.5707C31.5055 33.056 31.8001 33.497 32.1716 33.8684C32.543 34.2398 32.984 34.5345 33.4693 34.7355C33.9546 34.9365 34.4747 35.04 35 35.04C35.5253 35.04 36.0454 34.9365 36.5307 34.7355C37.016 34.5345 37.457 34.2398 37.8284 33.8684C38.1999 33.497 38.4945 33.056 38.6955 32.5707C38.8965 32.0854 39 31.5653 39 31.04C39 30.5147 38.8965 29.9945 38.6955 29.5092C38.4945 29.0239 38.1999 28.583 37.8284 28.2116C37.457 27.8401 37.016 27.5455 36.5307 27.3445C36.0454 27.1434 35.5253 27.04 35 27.04ZM27 35.04C25.9391 35.04 24.9217 35.4614 24.1716 36.2116C23.4214 36.9617 23 37.9791 23 39.04C23 40.1008 23.4214 41.1183 24.1716 41.8684C24.9217 42.6186 25.9391 43.04 27 43.04C28.0609 43.04 29.0783 42.6186 29.8284 41.8684C30.5786 41.1183 31 40.1008 31 39.04V35.04M27 35.04H31" stroke="#00A4FF" stroke-width="2" stroke-linecap="round" stroke-linejoin="round"/>
</svg>
