<svg width="29" height="29" viewBox="0 0 29 29" fill="none" xmlns="http://www.w3.org/2000/svg">
<path fill-rule="evenodd" clip-rule="evenodd" d="M14.512 0.540039C6.48724 0.540039 0 6.95668 0 14.8949C0 21.2404 4.1566 26.6117 9.9229 28.5128C10.6438 28.6557 10.9079 28.2039 10.9079 27.8239C10.9079 27.4911 10.8841 26.3504 10.8841 25.1619C6.84726 26.0176 6.00661 23.4507 6.00661 23.4507C5.35786 21.787 4.39661 21.3594 4.39661 21.3594C3.07534 20.48 4.49286 20.48 4.49286 20.48C5.95849 20.5751 6.72755 21.9535 6.72755 21.9535C8.02476 24.1399 10.1151 23.5221 10.956 23.1418C11.076 22.2149 11.4607 21.5732 11.8692 21.2168C8.64945 20.884 5.26191 19.6482 5.26191 14.1343C5.26191 12.5657 5.83819 11.2824 6.75131 10.2843C6.60725 9.92788 6.10256 8.45409 6.89568 6.48156C6.89568 6.48156 8.121 6.10122 10.8838 7.95505C12.0667 7.64083 13.2866 7.48098 14.512 7.47964C15.7373 7.47964 16.9864 7.64618 18.1398 7.95505C20.903 6.10122 22.1283 6.48156 22.1283 6.48156C22.9214 8.45409 22.4165 9.92788 22.2724 10.2843C23.2096 11.2824 23.7621 12.5657 23.7621 14.1343C23.7621 19.6482 20.3745 20.8601 17.1308 21.2168C17.6595 21.6683 18.1158 22.5237 18.1158 23.8785C18.1158 25.8035 18.092 27.3485 18.092 27.8236C18.092 28.2039 18.3564 28.6557 19.077 28.5131C24.8433 26.6114 28.9999 21.2404 28.9999 14.8949C29.0237 6.95668 22.5127 0.540039 14.512 0.540039Z" fill="#00A4FF"/>
</svg>
