<svg width="62" height="63" viewBox="0 0 62 63" fill="none" xmlns="http://www.w3.org/2000/svg">
<rect x="0.5" y="0.539978" width="61" height="61" rx="30.5" fill="#131212"/>
<rect x="0.5" y="0.539978" width="61" height="61" rx="30.5" stroke="#1A1A1A"/>
<path d="M37.3384 32.2726L35.9343 25.2532C35.8961 25.0623 35.8041 24.8862 35.6691 24.7458C35.5342 24.6054 35.3618 24.5065 35.1725 24.4608L22.2611 21.0686C22.091 21.0275 21.9132 21.0307 21.7448 21.0781C21.5763 21.1255 21.4228 21.2153 21.2991 21.3391C21.1753 21.4628 21.0855 21.6163 21.0381 21.7847C20.9908 21.9532 20.9875 22.131 21.0286 22.3011L24.4209 35.2125C24.4665 35.4018 24.5654 35.5741 24.7058 35.7091C24.8462 35.8441 25.0223 35.9361 25.2133 35.9743L32.2326 37.3784M21.3064 21.3463L28.7464 28.7864M34.9969 40.741C34.8054 40.9324 34.5457 41.04 34.2749 41.04C34.0042 41.04 33.7445 40.9324 33.553 40.741L31.9334 39.1215C31.742 38.93 31.6345 38.6703 31.6345 38.3995C31.6345 38.1287 31.742 37.869 31.9334 37.6776L37.6376 31.9734C37.8291 31.782 38.0888 31.6744 38.3595 31.6744C38.6303 31.6744 38.89 31.782 39.0815 31.9734L40.701 33.593C40.8925 33.7845 41 34.0441 41 34.3149C41 34.5857 40.8925 34.8454 40.701 35.0369L34.9969 40.741ZM32.2326 30.2303C32.2326 31.3582 31.3183 32.2726 30.1903 32.2726C29.0624 32.2726 28.148 31.3582 28.148 30.2303C28.148 29.1024 29.0624 28.188 30.1903 28.188C31.3183 28.188 32.2326 29.1024 32.2326 30.2303Z" stroke="#00A4FF" stroke-width="2" stroke-linecap="round" stroke-linejoin="round"/>
</svg>
