<svg width="29" height="29" viewBox="0 0 29 29" fill="none" xmlns="http://www.w3.org/2000/svg">
<path d="M22.2483 5.24502C21.2777 5.24502 20.4908 6.03186 20.4908 7.0025C20.4908 7.9732 21.2777 8.75999 22.2483 8.75999C23.219 8.75999 24.0058 7.9732 24.0058 7.0025C24.0058 6.03186 23.219 5.24502 22.2483 5.24502ZM20.8263 0.504395H8.56547C4.0512 0.504395 0.391602 4.18671 0.391602 8.72894V20.5519C0.391602 25.0943 4.0512 28.7765 8.56547 28.7765H20.8263C25.3407 28.7765 29.0001 25.0943 29.0001 20.5519V8.72894C29.0001 4.18671 25.3407 0.504395 20.8263 0.504395ZM26.3271 19.4864C26.3271 23.8943 24.3378 26.2716 19.6674 26.2716H9.67801C5.05656 26.2716 3.0184 23.9873 3.0184 19.4864V9.73257C3.0184 4.82942 5.02535 2.94743 9.67801 2.94743H19.6674C24.0286 2.94743 26.327 5.01506 26.327 9.73257L26.3271 19.4864ZM14.6173 7.30584C10.5822 7.30584 7.3113 10.5767 7.3113 14.6117C7.3113 18.6467 10.5822 21.9177 14.6173 21.9177C18.6521 21.9177 21.9231 18.6468 21.9231 14.6117C21.9231 10.5767 18.6521 7.30584 14.6173 7.30584ZM14.6173 19.3649C11.9921 19.3649 9.86395 17.2368 9.86395 14.6117C9.86395 11.9865 11.9921 9.85845 14.6173 9.85845C17.2422 9.85845 19.3702 11.9865 19.3702 14.6117C19.3702 17.2368 17.2422 19.3649 14.6173 19.3649Z" fill="#00A4FF"/>
</svg>
