<svg width="29" height="30" viewBox="0 0 29 30" fill="none" xmlns="http://www.w3.org/2000/svg">
<path d="M25.5476 0.540039H3.45238C1.54667 0.540039 0 2.08671 0 3.99242V26.0877C0 27.9934 1.54667 29.54 3.45238 29.54H25.5476C27.4533 29.54 29 27.9934 29 26.0877V3.99242C29 2.08671 27.4533 0.540039 25.5476 0.540039ZM8.97619 11.5877V24.7067H4.83333V11.5877H8.97619ZM4.83333 7.76932C4.83333 6.80266 5.6619 6.06385 6.90476 6.06385C8.14762 6.06385 8.92786 6.80266 8.97619 7.76932C8.97619 8.73599 8.20286 9.51623 6.90476 9.51623C5.6619 9.51623 4.83333 8.73599 4.83333 7.76932ZM24.1667 24.7067H20.0238C20.0238 24.7067 20.0238 18.3129 20.0238 17.8019C20.0238 16.421 19.3333 15.04 17.6071 15.0124H17.5519C15.881 15.0124 15.1905 16.4348 15.1905 17.8019C15.1905 18.4303 15.1905 24.7067 15.1905 24.7067H11.0476V11.5877H15.1905V13.3553C15.1905 13.3553 16.5231 11.5877 19.2021 11.5877C21.9433 11.5877 24.1667 13.4727 24.1667 17.291V24.7067Z" fill="#00A4FF"/>
</svg>
