<svg width="175" height="29" viewBox="0 0 175 29" fill="none" xmlns="http://www.w3.org/2000/svg">
<path d="M17.074 16.096V11.006C16.99 9.28 15.562 7.906 13.816 7.906H11.614C10.258 7.906 8.946 7.43199 7.904 6.56599C7.904 8.63799 8.826 10.604 10.422 11.928L10.554 12.038L16.036 16.59L17.074 17.452L21.5 21.126C22.602 22.04 23.474 23.18 24.068 24.446C24.662 25.71 24.98 27.108 24.98 28.54H18.06L10.556 22.308L7.906 20.106V28.54H0V0H18.346C22.01 0 24.98 2.97 24.98 6.63399V23.928C24.32 22.554 23.37 21.322 22.164 20.32L20.314 18.784L17.074 16.096Z" fill="#00A4FF"/>
<path d="M34.5321 23.154V4.80597H44.5881C45.9421 4.80597 47.0701 5.04597 47.9721 5.52797C48.8721 6.00997 49.5461 6.68197 49.9921 7.54797C50.4381 8.41397 50.6601 9.40597 50.6601 10.53C50.6601 11.724 50.3921 12.782 49.8581 13.7C49.3241 14.618 48.5481 15.318 47.5321 15.8L51.2761 23.154H46.8641L43.6281 16.468H38.5201V23.154H34.5321ZM38.5161 13.312H44.0521C44.8541 13.312 45.4781 13.068 45.9241 12.576C46.3701 12.086 46.5921 11.422 46.5921 10.584C46.5921 10.05 46.4941 9.58997 46.2981 9.20597C46.1021 8.82197 45.8161 8.53397 45.4421 8.33597C45.0681 8.13997 44.6041 8.04197 44.0521 8.04197H38.5161V13.312Z" fill="white"/>
<path d="M60.5281 23.474C58.5841 23.474 56.9081 23.126 55.5001 22.43C54.0921 21.734 53.0121 20.682 52.2641 19.274C51.5161 17.866 51.1401 16.1 51.1401 13.978C51.1401 11.82 51.5141 10.042 52.2641 8.642C53.0121 7.242 54.0921 6.2 55.5001 5.512C56.9081 4.826 58.5841 4.48199 60.5281 4.48199C62.5081 4.48199 64.1961 4.826 65.5961 5.512C66.9961 6.198 68.0701 7.242 68.8181 8.642C69.5661 10.042 69.9421 11.82 69.9421 13.978C69.9421 16.1 69.5681 17.866 68.8181 19.274C68.0701 20.682 66.9941 21.734 65.5961 22.43C64.1961 23.128 62.5061 23.474 60.5281 23.474ZM60.5281 20.212C61.4021 20.212 62.1681 20.088 62.8281 19.838C63.4881 19.588 64.0401 19.214 64.4861 18.714C64.9321 18.216 65.2701 17.604 65.5021 16.882C65.7341 16.16 65.8501 15.336 65.8501 14.408V13.58C65.8501 12.636 65.7341 11.798 65.5021 11.066C65.2701 10.336 64.9321 9.72399 64.4861 9.23399C64.0401 8.74399 63.4881 8.374 62.8281 8.124C62.1681 7.874 61.4021 7.75 60.5281 7.75C59.6721 7.75 58.9141 7.874 58.2541 8.124C57.5941 8.374 57.0421 8.74399 56.5961 9.23399C56.1501 9.72399 55.8161 10.336 55.5941 11.066C55.3701 11.798 55.2601 12.636 55.2601 13.58V14.408C55.2601 15.336 55.3721 16.16 55.5941 16.882C55.8161 17.604 56.1521 18.216 56.5961 18.714C57.0421 19.214 57.5941 19.588 58.2541 19.838C58.9141 20.088 59.6721 20.212 60.5281 20.212Z" fill="white"/>
<path d="M71.2 23.154V4.80597H74.864L82.2459 14.702C82.3519 14.826 82.4859 15 82.6479 15.224C82.8079 15.448 82.9599 15.666 83.1019 15.88C83.2439 16.094 83.3419 16.264 83.3959 16.388H83.53C83.53 16.086 83.53 15.786 83.53 15.492C83.53 15.198 83.53 14.934 83.53 14.702V4.80597H87.2999V23.154H83.6359L76.0939 13.018C75.9159 12.768 75.728 12.492 75.532 12.19C75.336 11.886 75.1939 11.656 75.1039 11.494H74.97C74.97 11.762 74.97 12.024 74.97 12.284C74.97 12.542 74.97 12.788 74.97 13.02V23.156H71.2V23.154Z" fill="white"/>
<path d="M87.5142 23.154L94.5742 4.80597H99.4941L106.556 23.154H102.25L100.94 19.544H92.9442L91.6342 23.154H87.5142ZM94.0922 16.334H99.7882L98.1562 11.814C98.0842 11.618 98.0002 11.382 97.9022 11.106C97.8042 10.83 97.7021 10.522 97.5941 10.184C97.4861 9.84596 97.3842 9.51196 97.2862 9.18196C97.1882 8.85196 97.0942 8.55397 97.0062 8.28597H96.8462C96.7562 8.62397 96.6402 9.02196 96.4982 9.47596C96.3562 9.92996 96.2122 10.368 96.0702 10.786C95.9282 11.206 95.8122 11.548 95.7222 11.816L94.0922 16.334Z" fill="white"/>
<path d="M106.77 23.154V4.80597H110.756V19.756H120.01V23.152H106.77V23.154Z" fill="white"/>
<path d="M120.598 23.154V4.80597H128.086C129.994 4.80597 131.616 5.13597 132.954 5.79597C134.292 6.45596 135.322 7.45797 136.044 8.80397C136.766 10.15 137.128 11.876 137.128 13.98C137.128 16.066 136.766 17.788 136.044 19.142C135.322 20.498 134.292 21.504 132.954 22.164C131.616 22.824 129.994 23.154 128.086 23.154H120.598ZM124.582 19.864H128.058C128.86 19.864 129.574 19.748 130.198 19.516C130.822 19.284 131.338 18.942 131.75 18.486C132.16 18.032 132.472 17.46 132.686 16.774C132.9 16.088 133.008 15.29 133.008 14.38V13.578C133.008 12.668 132.9 11.87 132.686 11.184C132.472 10.498 132.16 9.92596 131.75 9.47196C131.34 9.01797 130.822 8.66996 130.198 8.42797C129.574 8.18797 128.86 8.06797 128.058 8.06797H124.582V19.864Z" fill="white"/>
<path d="M138.094 23.1541V21.7101H139.294V23.1541H138.094Z" fill="white"/>
<path d="M141.488 23.154V10.29H145.876C147.276 10.29 148.464 10.51 149.44 10.946C150.416 11.384 151.158 12.074 151.672 13.018C152.184 13.962 152.44 15.196 152.44 16.722C152.44 18.222 152.184 19.448 151.672 20.398C151.16 21.348 150.416 22.046 149.44 22.488C148.464 22.932 147.276 23.154 145.876 23.154H141.488ZM142.502 22.254H145.802C146.64 22.254 147.398 22.164 148.08 21.982C148.762 21.8 149.348 21.504 149.842 21.092C150.336 20.68 150.714 20.132 150.976 19.452C151.238 18.77 151.37 17.936 151.37 16.948V16.572C151.37 15.548 151.238 14.69 150.976 14.002C150.714 13.314 150.338 12.764 149.85 12.352C149.362 11.94 148.778 11.642 148.096 11.462C147.414 11.28 146.648 11.19 145.798 11.19H142.498V22.254H142.502Z" fill="white"/>
<path d="M153.996 23.154V10.29H163.748V11.19H155.01V16.104H162.924V17.004H155.01V22.254H163.862V23.154H153.996Z" fill="white"/>
<path d="M168.7 23.154L163.748 10.29H164.836L168.436 19.704C168.536 19.942 168.64 20.21 168.746 20.51C168.852 20.81 168.958 21.108 169.064 21.4C169.17 21.694 169.26 21.954 169.336 22.178H169.468C169.556 21.954 169.65 21.694 169.75 21.4C169.85 21.106 169.956 20.81 170.068 20.51C170.18 20.21 170.28 19.942 170.368 19.704L173.912 10.29H175L170.05 23.154H168.7Z" fill="white"/>
</svg>
