<svg width="439" height="440" viewBox="0 0 439 440" fill="none" xmlns="http://www.w3.org/2000/svg">
<path d="M228.649 378.598C329.81 378.598 411.817 373.146 411.817 366.42C411.817 359.695 329.81 354.242 228.649 354.242C127.487 354.242 45.4802 359.695 45.4802 366.42C45.4802 373.146 127.487 378.598 228.649 378.598Z" fill="#EBEBEB"/>
<path d="M101.918 408.59C145.589 408.59 180.991 403.909 180.991 398.133C180.991 392.358 145.589 387.677 101.918 387.677C58.2475 387.677 22.8455 392.358 22.8455 398.133C22.8455 403.909 58.2475 408.59 101.918 408.59Z" fill="#EBEBEB"/>
<path d="M26.0854 345.137L74.4369 344.927L122.788 344.848L219.5 344.698L316.212 344.848L364.563 344.918L412.915 345.137L364.563 345.348L316.212 345.427L219.5 345.576L122.788 345.427L74.4369 345.348L26.0854 345.137Z" fill="#263238"/>
<path d="M178.216 365.296H393.713L410.395 218.943H194.898L178.216 365.296Z" fill="#455A64"/>
<path d="M189.955 355.48H384.213L398.656 228.759H204.407L189.955 355.48Z" fill="white"/>
<path d="M114.974 365.296L392.202 365.296V355.48L114.974 355.48V365.296Z" fill="#455A64"/>
<path d="M54.7695 365.296L331.998 365.296V355.48L54.7695 355.48V365.296Z" fill="#101010"/>
<path d="M220.316 241.929L240.212 241.814L260.099 241.779L299.881 241.709L339.663 241.779L359.558 241.814L379.445 241.929L359.558 242.034L339.663 242.069L299.881 242.148L260.099 242.069L240.212 242.034L220.316 241.929Z" fill="#C7C7C7"/>
<path d="M219.526 248.417L239.413 248.303L259.308 248.268L299.09 248.197L338.873 248.268L358.759 248.303L378.655 248.417L358.759 248.522L338.873 248.557L299.09 248.636L259.308 248.557L239.413 248.522L219.526 248.417Z" fill="#C7C7C7"/>
<path d="M218.727 254.905L238.614 254.791L258.509 254.756L298.292 254.686L338.074 254.756L357.961 254.791L377.856 254.905L357.961 255.011L338.074 255.046L298.292 255.125L258.509 255.046L238.614 255.011L218.727 254.905Z" fill="#C7C7C7"/>
<path d="M217.928 261.394L237.824 261.288L257.71 261.245L297.493 261.174L337.275 261.245L357.17 261.288L377.057 261.394L357.17 261.499L337.275 261.534L297.493 261.613L257.71 261.534L237.824 261.499L217.928 261.394Z" fill="#C7C7C7"/>
<path d="M217.129 267.882L237.025 267.777L256.912 267.733L296.694 267.663L336.476 267.733L356.371 267.777L376.258 267.882L356.371 267.988L336.476 268.023L296.694 268.102L256.912 268.023L237.025 267.988L217.129 267.882Z" fill="#C7C7C7"/>
<path d="M216.339 274.371L236.226 274.265L256.121 274.221L295.903 274.151L335.686 274.221L355.572 274.265L375.468 274.371L355.572 274.476L335.686 274.52L295.903 274.59L256.121 274.511L236.226 274.476L216.339 274.371Z" fill="#C7C7C7"/>
<path d="M215.54 280.859L235.427 280.754L255.322 280.71L295.104 280.64L334.887 280.71L354.773 280.754L374.669 280.859L354.773 280.964L334.887 281.008L295.104 281.079L255.322 281.008L235.427 280.964L215.54 280.859Z" fill="#C7C7C7"/>
<path d="M214.741 287.347L234.637 287.242L254.523 287.198L294.306 287.128L334.088 287.198L353.983 287.242L373.87 287.347L353.983 287.453L334.088 287.497L294.306 287.567L254.523 287.488L234.637 287.453L214.741 287.347Z" fill="#C7C7C7"/>
<path d="M213.951 293.836L233.838 293.731L253.733 293.687L293.515 293.616L333.289 293.687L353.184 293.731L373.071 293.836L353.184 293.941L333.289 293.985L293.515 294.055L253.733 293.985L233.838 293.941L213.951 293.836Z" fill="#C7C7C7"/>
<path d="M213.152 300.324L233.039 300.219L252.934 300.175L292.716 300.105L332.498 300.175L352.385 300.219L372.281 300.324L352.385 300.43L332.498 300.474L292.716 300.544L252.934 300.474L233.039 300.43L213.152 300.324Z" fill="#C7C7C7"/>
<path d="M212.353 306.813L232.24 306.707L252.135 306.672L291.917 306.593L331.7 306.672L351.586 306.707L371.482 306.813L351.586 306.918L331.7 306.962L291.917 307.032L252.135 306.962L232.24 306.918L212.353 306.813Z" fill="#C7C7C7"/>
<path d="M211.554 313.301L231.449 313.196L251.336 313.161L291.118 313.082L330.9 313.161L350.796 313.196L370.683 313.301L350.796 313.407L330.9 313.45L291.118 313.521L251.336 313.45L231.449 313.407L211.554 313.301Z" fill="#C7C7C7"/>
<path d="M210.755 319.79L230.65 319.684L250.546 319.649L290.328 319.57L330.11 319.649L349.997 319.684L369.892 319.79L349.997 319.904L330.11 319.939L290.328 320.009L250.546 319.939L230.65 319.895L210.755 319.79Z" fill="#C7C7C7"/>
<path d="M209.965 326.278L229.852 326.173L249.747 326.137L289.529 326.058L329.311 326.137L349.198 326.173L369.094 326.278L349.198 326.392L329.311 326.427L289.529 326.497L249.747 326.427L229.852 326.392L209.965 326.278Z" fill="#C7C7C7"/>
<path d="M209.166 332.766L229.052 332.661L248.948 332.626L288.73 332.547L328.512 332.626L348.399 332.661L368.294 332.766L348.399 332.881L328.512 332.916L288.73 332.986L248.948 332.916L229.052 332.872L209.166 332.766Z" fill="#C7C7C7"/>
<path d="M243.636 287.347H231.572L225.066 340.335H237.13L243.636 287.347Z" fill="#00A4FF"/>
<path d="M267.605 274.423H255.542L247.447 340.335H259.519L267.605 274.423Z" fill="#00A4FF"/>
<path d="M289.178 281.079H277.114L269.836 340.335H281.899L289.178 281.079Z" fill="#00A4FF"/>
<path d="M313.981 261.394H301.918L292.225 340.335H304.288L313.981 261.394Z" fill="#00A4FF"/>
<path d="M335.071 271.974H322.999L314.605 340.335H326.677L335.071 271.974Z" fill="#00A4FF"/>
<path d="M360.349 248.417H348.276L336.994 340.335H349.058L360.349 248.417Z" fill="#00A4FF"/>
<path d="M225.198 237.372L222.389 263.159C221.458 271.754 220.431 280.332 219.447 288.919L216.462 314.688L213.354 340.431L212.546 339.553C225.444 339.553 238.351 339.466 251.248 339.553L289.951 339.641L328.653 339.913L347.969 340.124L367.285 340.396L347.969 340.668L328.653 340.879L289.951 341.143L251.248 341.239C238.351 341.301 225.444 341.239 212.546 341.239H211.598L211.712 340.361L214.934 314.627L218.271 288.902C219.395 280.332 220.474 271.754 221.651 263.194L225.198 237.372Z" fill="#C7C7C7"/>
<path d="M236.331 346.867H224.259L224.399 345.778H236.463L236.331 346.867Z" fill="#C7C7C7"/>
<path d="M258.711 346.867H246.648L246.779 345.778H258.852L258.711 346.867Z" fill="#C7C7C7"/>
<path d="M281.1 346.867H269.037L269.168 345.778H281.232L281.1 346.867Z" fill="#C7C7C7"/>
<path d="M303.489 346.867H291.417L291.549 345.778H303.621L303.489 346.867Z" fill="#C7C7C7"/>
<path d="M325.87 346.867H313.806L313.938 345.778H326.01L325.87 346.867Z" fill="#C7C7C7"/>
<path d="M348.259 346.867H336.186L336.327 345.778H348.39L348.259 346.867Z" fill="#C7C7C7"/>
<path d="M203.705 234.905L204.407 228.759H398.656L397.953 234.905H203.705Z" fill="#263238"/>
<path d="M209.535 231.832C209.479 232.257 209.269 232.647 208.946 232.928C208.623 233.21 208.207 233.363 207.779 233.359C207.585 233.364 207.392 233.326 207.214 233.249C207.036 233.171 206.878 233.055 206.75 232.909C206.622 232.764 206.527 232.592 206.473 232.405C206.418 232.219 206.406 232.023 206.435 231.832C206.491 231.406 206.7 231.016 207.024 230.735C207.347 230.454 207.762 230.3 208.191 230.304C208.386 230.297 208.579 230.334 208.758 230.411C208.936 230.489 209.095 230.604 209.224 230.75C209.352 230.896 209.447 231.069 209.5 231.256C209.554 231.443 209.566 231.64 209.535 231.832Z" fill="#C7C7C7"/>
<path d="M215.768 231.832C215.714 232.249 215.511 232.633 215.196 232.914C214.882 233.194 214.478 233.352 214.056 233.359C213.862 233.364 213.67 233.326 213.492 233.249C213.314 233.171 213.156 233.055 213.028 232.909C212.9 232.764 212.805 232.592 212.751 232.405C212.696 232.219 212.683 232.023 212.713 231.832C212.769 231.406 212.978 231.016 213.302 230.735C213.625 230.454 214.04 230.3 214.469 230.304C214.66 230.304 214.848 230.345 215.021 230.425C215.194 230.506 215.348 230.622 215.472 230.768C215.595 230.913 215.686 231.083 215.737 231.267C215.788 231.451 215.799 231.643 215.768 231.832Z" fill="white"/>
<path d="M222.011 231.832C221.955 232.257 221.746 232.647 221.422 232.928C221.099 233.21 220.684 233.363 220.255 233.359C220.061 233.364 219.869 233.327 219.691 233.249C219.514 233.171 219.356 233.055 219.228 232.909C219.101 232.763 219.007 232.591 218.954 232.405C218.901 232.218 218.889 232.023 218.92 231.832C218.976 231.406 219.185 231.016 219.509 230.735C219.832 230.454 220.248 230.3 220.676 230.304C220.87 230.3 221.061 230.339 221.238 230.417C221.415 230.496 221.572 230.612 221.699 230.757C221.826 230.903 221.92 231.074 221.974 231.26C222.028 231.445 222.04 231.641 222.011 231.832Z" fill="#00A4FF"/>
<path d="M195.118 162.47C194.328 162.47 164.95 176.026 163.212 209.416C161.614 240.146 182.835 269.27 185.574 267.364C188.928 265.002 183.23 245.88 189.753 224C192.063 216.238 202.177 209.355 202.177 209.355L195.118 162.47Z" fill="#00A4FF"/>
<path opacity="0.1" d="M202.186 209.328C199.232 211.421 196.532 213.852 194.143 216.572C189.753 206.817 181.623 188.608 176.355 176.807C184.96 166.86 194.67 162.47 195.118 162.47L202.186 209.328Z" fill="black"/>
<path d="M269.888 162.522C270.67 162.522 300.03 176.122 301.725 209.513C303.279 240.243 282.005 269.34 279.274 267.408C275.92 265.038 281.654 245.924 275.165 224.035C272.865 216.273 262.75 209.372 262.75 209.372L269.888 162.522Z" fill="#00A4FF"/>
<path opacity="0.1" d="M288.739 177.018C283.418 188.924 275.253 207.169 270.933 216.809C268.512 214.021 265.768 211.531 262.759 209.39L269.888 162.531C270.336 162.513 280.126 166.965 288.739 177.018Z" fill="black"/>
<path d="M254.717 239.286H210.386C210.386 239.286 189.508 201.944 191.948 157.43C193.195 135.208 198.972 112.836 205.996 94.3192C215.637 68.7168 227.534 50.5861 232.67 50.5861C237.806 50.5861 249.686 68.7431 259.291 94.328C266.236 112.845 272.013 135.234 273.225 157.456C275.692 201.971 254.717 239.286 254.717 239.286Z" fill="#EBEBEB"/>
<path d="M259.142 151.688C259.137 156.745 257.632 161.686 254.818 165.888C252.005 170.089 248.008 173.362 243.334 175.293C238.66 177.223 233.519 177.724 228.561 176.732C223.602 175.741 219.049 173.301 215.477 169.722C211.905 166.142 209.475 161.584 208.493 156.624C207.512 151.663 208.023 146.523 209.963 141.853C211.903 137.183 215.184 133.193 219.392 130.388C223.599 127.583 228.544 126.089 233.601 126.094C236.959 126.096 240.283 126.76 243.384 128.048C246.486 129.336 249.303 131.222 251.675 133.599C254.046 135.975 255.927 138.796 257.208 141.9C258.489 145.004 259.146 148.33 259.142 151.688Z" fill="#C7C7C7"/>
<path d="M258.238 149.089C258.234 154.145 256.732 159.086 253.92 163.289C251.109 167.491 247.114 170.765 242.442 172.698C237.77 174.63 232.63 175.134 227.671 174.145C222.713 173.157 218.159 170.72 214.585 167.144C211.011 163.568 208.578 159.012 207.593 154.053C206.608 149.094 207.115 143.954 209.051 139.283C210.986 134.612 214.263 130.62 218.468 127.812C222.672 125.003 227.614 123.504 232.67 123.504C236.03 123.503 239.356 124.164 242.46 125.449C245.563 126.735 248.383 128.62 250.758 130.996C253.132 133.372 255.015 136.193 256.299 139.298C257.582 142.402 258.241 145.73 258.238 149.089Z" fill="#00A4FF"/>
<path d="M250.325 150.838C251.294 141.096 244.182 132.413 234.439 131.444C224.697 130.475 216.014 137.587 215.045 147.329C214.076 157.072 221.188 165.755 230.931 166.724C240.673 167.693 249.356 160.581 250.325 150.838Z" fill="white"/>
<path d="M250.406 149.063C250.411 151.261 250.003 153.441 249.203 155.49L239.106 165.604C235.539 166.982 231.622 167.173 227.938 166.148L249.756 144.33C250.187 145.871 250.405 147.463 250.406 149.063Z" fill="#EBEBEB"/>
<path d="M235.304 131.529L215.11 151.67C214.982 150.798 214.917 149.918 214.917 149.036C214.933 144.34 216.811 139.842 220.14 136.529C223.468 133.215 227.974 131.357 232.67 131.362C233.551 131.354 234.431 131.409 235.304 131.529Z" fill="#EBEBEB"/>
<path d="M248.193 140.484L224.092 164.577C223.625 164.31 223.174 164.017 222.74 163.699L247.324 139.115C247.649 139.554 247.93 140.01 248.193 140.484Z" fill="#EBEBEB"/>
<path d="M259.309 94.328H206.023C215.637 68.7168 227.534 50.5861 232.67 50.5861C237.806 50.5861 249.703 68.7431 259.309 94.328Z" fill="#00A4FF"/>
<path d="M215.198 88.7878C215.198 89.083 215.11 89.3716 214.946 89.6171C214.782 89.8625 214.549 90.0538 214.276 90.1668C214.004 90.2798 213.704 90.3093 213.414 90.2518C213.125 90.1942 212.859 90.052 212.65 89.8433C212.441 89.6345 212.299 89.3686 212.241 89.079C212.184 88.7895 212.213 88.4894 212.326 88.2166C212.439 87.9439 212.631 87.7108 212.876 87.5468C213.121 87.3828 213.41 87.2952 213.705 87.2952C213.901 87.2952 214.095 87.3338 214.276 87.4088C214.458 87.4839 214.622 87.5938 214.761 87.7324C214.899 87.871 215.009 88.0355 215.084 88.2166C215.159 88.3977 215.198 88.5918 215.198 88.7878Z" fill="white"/>
<path d="M224.68 88.7966C224.68 89.0918 224.593 89.3804 224.429 89.6259C224.265 89.8713 224.032 90.0626 223.759 90.1756C223.486 90.2886 223.186 90.3181 222.896 90.2605C222.607 90.2029 222.341 90.0608 222.132 89.852C221.923 89.6433 221.781 89.3773 221.724 89.0878C221.666 88.7983 221.696 88.4982 221.809 88.2254C221.922 87.9527 222.113 87.7196 222.358 87.5556C222.604 87.3916 222.892 87.304 223.188 87.304C223.384 87.304 223.578 87.3426 223.759 87.4176C223.94 87.4926 224.104 87.6026 224.243 87.7412C224.382 87.8798 224.492 88.0443 224.567 88.2254C224.642 88.4065 224.68 88.6006 224.68 88.7966Z" fill="white"/>
<path d="M234.154 88.8054C234.152 89.1006 234.063 89.3887 233.897 89.6332C233.732 89.8776 233.498 90.0676 233.224 90.1789C232.951 90.2903 232.651 90.3181 232.361 90.2588C232.072 90.1995 231.807 90.0558 231.6 89.8458C231.392 89.6358 231.252 89.3691 231.196 89.0792C231.14 88.7893 231.171 88.4894 231.286 88.2173C231.4 87.9453 231.593 87.7133 231.839 87.5507C232.086 87.3882 232.375 87.3023 232.67 87.304C232.866 87.3052 233.06 87.3449 233.241 87.421C233.421 87.4971 233.585 87.608 233.723 87.7474C233.861 87.8868 233.97 88.052 234.044 88.2336C234.118 88.4151 234.155 88.6094 234.154 88.8054Z" fill="white"/>
<path d="M243.636 88.8054C243.636 89.1006 243.549 89.3892 243.385 89.6346C243.221 89.8801 242.988 90.0714 242.715 90.1844C242.442 90.2974 242.142 90.3269 241.853 90.2693C241.563 90.2117 241.297 90.0696 241.088 89.8608C240.88 89.6521 240.737 89.3861 240.68 89.0966C240.622 88.8071 240.652 88.5069 240.765 88.2342C240.878 87.9615 241.069 87.7284 241.314 87.5644C241.56 87.4003 241.849 87.3128 242.144 87.3128C242.54 87.3128 242.919 87.4701 243.199 87.75C243.479 88.0299 243.636 88.4095 243.636 88.8054Z" fill="white"/>
<path d="M253.119 88.8142C253.119 89.1094 253.031 89.398 252.867 89.6434C252.703 89.8889 252.47 90.0802 252.197 90.1932C251.925 90.3062 251.624 90.3357 251.335 90.2781C251.045 90.2205 250.779 90.0784 250.571 89.8696C250.362 89.6609 250.22 89.3949 250.162 89.1054C250.105 88.8159 250.134 88.5157 250.247 88.243C250.36 87.9703 250.551 87.7372 250.797 87.5731C251.042 87.4091 251.331 87.3216 251.626 87.3216C252.022 87.3216 252.402 87.4789 252.682 87.7588C252.961 88.0387 253.119 88.4183 253.119 88.8142Z" fill="white"/>
<path d="M215.11 232.437C215.11 232.733 215.022 233.021 214.858 233.267C214.694 233.512 214.461 233.703 214.189 233.816C213.916 233.929 213.616 233.959 213.326 233.901C213.037 233.844 212.771 233.702 212.562 233.493C212.353 233.284 212.211 233.018 212.153 232.729C212.096 232.439 212.125 232.139 212.238 231.866C212.351 231.593 212.543 231.36 212.788 231.196C213.034 231.032 213.322 230.945 213.617 230.945C214.013 230.945 214.393 231.102 214.673 231.382C214.953 231.662 215.11 232.042 215.11 232.437Z" fill="#C7C7C7"/>
<path d="M224.619 232.446C224.619 232.741 224.531 233.03 224.367 233.275C224.203 233.521 223.97 233.712 223.697 233.825C223.425 233.938 223.124 233.968 222.835 233.91C222.545 233.853 222.279 233.71 222.071 233.502C221.862 233.293 221.72 233.027 221.662 232.737C221.605 232.448 221.634 232.148 221.747 231.875C221.86 231.602 222.051 231.369 222.297 231.205C222.542 231.041 222.831 230.954 223.126 230.954C223.522 230.954 223.902 231.111 224.182 231.391C224.461 231.671 224.619 232.05 224.619 232.446Z" fill="#C7C7C7"/>
<path d="M234.092 232.455C234.092 232.751 234.005 233.039 233.84 233.285C233.676 233.531 233.442 233.722 233.169 233.835C232.896 233.947 232.595 233.977 232.305 233.918C232.016 233.86 231.75 233.717 231.541 233.507C231.333 233.298 231.191 233.031 231.135 232.741C231.078 232.451 231.109 232.15 231.223 231.878C231.338 231.605 231.53 231.373 231.777 231.21C232.024 231.047 232.313 230.961 232.609 230.962C232.804 230.962 232.998 231.001 233.178 231.076C233.359 231.151 233.523 231.261 233.661 231.4C233.799 231.539 233.908 231.703 233.982 231.884C234.056 232.065 234.094 232.259 234.092 232.455Z" fill="#C7C7C7"/>
<path d="M243.575 232.455C243.575 232.75 243.487 233.039 243.323 233.284C243.159 233.53 242.926 233.721 242.653 233.834C242.381 233.947 242.081 233.977 241.791 233.919C241.501 233.861 241.236 233.719 241.027 233.51C240.818 233.302 240.676 233.036 240.618 232.746C240.561 232.457 240.59 232.157 240.703 231.884C240.816 231.611 241.008 231.378 241.253 231.214C241.498 231.05 241.787 230.962 242.082 230.962C242.478 230.962 242.858 231.12 243.138 231.4C243.418 231.679 243.575 232.059 243.575 232.455Z" fill="#C7C7C7"/>
<path d="M253.057 232.464C253.057 232.759 252.97 233.048 252.806 233.293C252.642 233.538 252.409 233.73 252.136 233.843C251.863 233.956 251.563 233.985 251.273 233.928C250.984 233.87 250.718 233.728 250.509 233.519C250.3 233.31 250.158 233.045 250.101 232.755C250.043 232.465 250.073 232.165 250.186 231.893C250.299 231.62 250.49 231.387 250.735 231.223C250.981 231.059 251.269 230.971 251.565 230.971C251.96 230.971 252.34 231.128 252.62 231.408C252.9 231.688 253.057 232.068 253.057 232.464Z" fill="#C7C7C7"/>
<path d="M250.625 252.614L214.574 252.579L212.889 239.26L252.328 239.286L250.625 252.614Z" fill="#00A4FF"/>
<path opacity="0.1" d="M252.328 239.295L251.494 245.774L213.538 244.352L212.897 239.26L252.328 239.295Z" fill="black"/>
<path opacity="0.6" d="M150.331 317.498C150.331 318.757 149.958 319.988 149.259 321.035C148.559 322.081 147.565 322.897 146.402 323.379C145.239 323.861 143.959 323.987 142.724 323.741C141.489 323.496 140.355 322.889 139.465 321.999C138.575 321.109 137.968 319.975 137.723 318.74C137.477 317.505 137.603 316.225 138.085 315.062C138.567 313.899 139.383 312.905 140.429 312.205C141.476 311.506 142.707 311.133 143.966 311.133C145.654 311.133 147.273 311.803 148.467 312.997C149.661 314.191 150.331 315.81 150.331 317.498Z" fill="#00A4FF"/>
<path opacity="0.6" d="M154.967 308.428C156.679 308.428 158.066 307.041 158.066 305.329C158.066 303.617 156.679 302.23 154.967 302.23C153.255 302.23 151.868 303.617 151.868 305.329C151.868 307.041 153.255 308.428 154.967 308.428Z" fill="#00A4FF"/>
<path opacity="0.6" d="M294.218 314.408C294.216 315.02 294.033 315.618 293.691 316.127C293.35 316.636 292.865 317.031 292.299 317.265C291.732 317.498 291.109 317.558 290.509 317.437C289.908 317.317 289.357 317.021 288.924 316.587C288.491 316.153 288.197 315.601 288.078 315C287.959 314.399 288.021 313.776 288.256 313.211C288.491 312.645 288.888 312.161 289.398 311.821C289.907 311.481 290.506 311.299 291.119 311.299C291.526 311.299 291.93 311.38 292.307 311.536C292.683 311.692 293.025 311.922 293.313 312.21C293.601 312.499 293.829 312.842 293.985 313.219C294.14 313.596 294.219 314 294.218 314.408Z" fill="#00A4FF"/>
<path opacity="0.6" d="M356.328 342.714C356.328 343.327 356.146 343.926 355.805 344.436C355.465 344.946 354.981 345.343 354.414 345.578C353.848 345.812 353.225 345.874 352.624 345.754C352.022 345.634 351.47 345.339 351.037 344.906C350.603 344.472 350.308 343.92 350.188 343.319C350.069 342.718 350.13 342.094 350.365 341.528C350.599 340.962 350.997 340.478 351.506 340.137C352.016 339.797 352.615 339.615 353.228 339.615C354.05 339.617 354.836 339.944 355.417 340.525C355.998 341.106 356.325 341.893 356.328 342.714Z" fill="#00A4FF"/>
<path opacity="0.6" d="M351.578 351.784C351.578 352.27 351.482 352.752 351.295 353.201C351.109 353.65 350.836 354.057 350.492 354.401C350.148 354.744 349.739 355.016 349.29 355.201C348.84 355.387 348.359 355.481 347.872 355.48H117.292C116.312 355.48 115.372 355.091 114.678 354.398C113.985 353.704 113.596 352.764 113.596 351.784C113.596 350.804 113.985 349.863 114.678 349.17C115.372 348.477 116.312 348.088 117.292 348.088C117.588 348.087 117.883 348.122 118.17 348.193C118.168 346.743 118.598 345.326 119.406 344.122C120.214 342.918 121.362 341.982 122.704 341.434C124.047 340.887 125.522 340.752 126.942 341.047C128.361 341.342 129.66 342.054 130.673 343.092H130.743C130.743 342.644 130.673 342.214 130.673 341.731C130.673 338.08 132.123 334.578 134.705 331.996C137.287 329.414 140.789 327.964 144.44 327.964C146.541 327.958 148.614 328.439 150.498 329.369C150.629 327.13 151.522 325.005 153.028 323.344C154.535 321.683 156.564 320.587 158.778 320.239C160.993 319.89 163.26 320.31 165.204 321.427C167.147 322.545 168.65 324.294 169.463 326.383C170.949 324.038 173.108 322.196 175.659 321.099C178.21 320.002 181.032 319.702 183.757 320.237C183.565 319.177 183.471 318.101 183.476 317.024C183.469 313.458 184.486 309.965 186.406 306.96C188.326 303.954 191.068 301.563 194.306 300.07C197.545 298.577 201.144 298.045 204.676 298.537C208.208 299.028 211.525 300.523 214.232 302.844C214.544 302.242 215.015 301.737 215.594 301.384C216.173 301.031 216.838 300.844 217.516 300.842C218.004 300.844 218.486 300.939 218.938 301.123L222.424 252.526H242.741L246.2 301.097C246.644 300.916 247.117 300.821 247.596 300.816C248.274 300.817 248.939 301.005 249.518 301.358C250.097 301.711 250.568 302.216 250.88 302.818C253.791 300.31 257.406 298.764 261.23 298.391C265.054 298.019 268.9 298.837 272.241 300.735C275.582 302.633 278.254 305.517 279.892 308.992C281.53 312.468 282.053 316.365 281.39 320.15C282.258 319.979 283.14 319.894 284.024 319.895C286.354 319.891 288.646 320.48 290.686 321.606C292.726 322.732 294.446 324.358 295.684 326.331C296.497 324.241 297.999 322.492 299.943 321.375C301.887 320.257 304.154 319.838 306.369 320.186C308.583 320.535 310.612 321.63 312.118 323.291C313.625 324.952 314.518 327.078 314.649 329.316C316.533 328.386 318.606 327.905 320.707 327.911C322.521 327.905 324.318 328.258 325.995 328.949C327.672 329.64 329.196 330.655 330.48 331.937C331.763 333.219 332.78 334.742 333.474 336.418C334.167 338.094 334.522 339.891 334.518 341.705C334.518 342.161 334.518 342.583 334.448 343.065H334.518C335.536 342.033 336.838 341.328 338.259 341.04C339.68 340.752 341.154 340.894 342.494 341.448C343.833 342.003 344.977 342.944 345.778 344.151C346.58 345.359 347.004 346.778 346.994 348.228C347.282 348.157 347.577 348.122 347.872 348.123C348.848 348.123 349.783 348.507 350.477 349.192C351.171 349.878 351.566 350.809 351.578 351.784Z" fill="#00A4FF"/>
<path d="M293.112 321.344L288.318 322.231L287.247 327.288L286.175 322.231L281.382 321.344L286.149 320.176L287.247 315.4L288.335 320.176L293.112 321.344Z" fill="#FDFDFD"/>
<path d="M246.472 280.806L241.678 281.693L240.607 286.75L239.527 281.693L234.733 280.806L239.51 279.639L240.607 274.862L241.696 279.639L246.472 280.806Z" fill="#FDFDFD"/>
<path d="M176.785 330.967L174.099 331.467L173.502 334.294L172.905 331.467L170.227 330.967L172.896 330.317L173.502 327.648L174.116 330.317L176.785 330.967Z" fill="#FDFDFD"/>
<path d="M320.997 339.395L318.31 339.896L317.713 342.714L317.116 339.896L314.438 339.395L317.107 338.746L317.713 336.077L318.328 338.746L320.997 339.395Z" fill="#FDFDFD"/>
<path d="M139.9 349.299L137.214 349.791L136.617 352.618L136.02 349.791L133.342 349.299L136.011 348.649L136.617 345.98L137.223 348.649L139.9 349.299Z" fill="#FDFDFD"/>
<path d="M256.482 346.946L253.804 347.447L253.207 350.265L252.601 347.447L249.923 346.946L252.592 346.296L253.207 343.627L253.812 346.296L256.482 346.946Z" fill="#FDFDFD"/>
<path d="M236.858 273.124L234.18 273.616L233.583 276.443L232.986 273.616L230.3 273.115L232.969 272.465L233.583 269.796L234.189 272.465L236.858 273.124Z" fill="#FDFDFD"/>
<path d="M327.336 345.506C327.144 345.527 326.967 345.617 326.838 345.761C326.709 345.904 326.637 346.09 326.637 346.283C326.637 346.476 326.709 346.662 326.838 346.806C326.967 346.949 327.144 347.04 327.336 347.06C327.528 347.04 327.705 346.949 327.834 346.806C327.963 346.662 328.035 346.476 328.035 346.283C328.035 346.09 327.963 345.904 327.834 345.761C327.705 345.617 327.528 345.527 327.336 345.506Z" fill="#FDFDFD"/>
<path d="M226.524 263.317C226.332 263.337 226.155 263.428 226.026 263.571C225.897 263.715 225.825 263.901 225.825 264.094C225.825 264.287 225.897 264.473 226.026 264.616C226.155 264.76 226.332 264.85 226.524 264.871C226.716 264.85 226.894 264.76 227.023 264.616C227.152 264.473 227.223 264.287 227.223 264.094C227.223 263.901 227.152 263.715 227.023 263.571C226.894 263.428 226.716 263.337 226.524 263.317Z" fill="#FDFDFD"/>
<path d="M160.2 349.299C160.008 349.32 159.831 349.41 159.702 349.554C159.573 349.697 159.501 349.883 159.501 350.076C159.501 350.269 159.573 350.455 159.702 350.599C159.831 350.742 160.008 350.833 160.2 350.853C160.392 350.833 160.569 350.742 160.698 350.599C160.827 350.455 160.899 350.269 160.899 350.076C160.899 349.883 160.827 349.697 160.698 349.554C160.569 349.41 160.392 349.32 160.2 349.299Z" fill="#FDFDFD"/>
<path d="M209.447 338.623C209.255 338.643 209.078 338.734 208.949 338.877C208.82 339.021 208.748 339.207 208.748 339.4C208.748 339.593 208.82 339.779 208.949 339.922C209.078 340.066 209.255 340.156 209.447 340.177C209.639 340.156 209.816 340.066 209.945 339.922C210.074 339.779 210.146 339.593 210.146 339.4C210.146 339.207 210.074 339.021 209.945 338.877C209.816 338.734 209.639 338.643 209.447 338.623Z" fill="#FDFDFD"/>
<path d="M307.871 331.546C307.737 331.563 307.614 331.628 307.525 331.729C307.436 331.83 307.387 331.96 307.387 332.095C307.387 332.229 307.436 332.36 307.525 332.461C307.614 332.562 307.737 332.627 307.871 332.644C308.004 332.627 308.127 332.562 308.216 332.461C308.305 332.36 308.354 332.229 308.354 332.095C308.354 331.96 308.305 331.83 308.216 331.729C308.127 331.628 308.004 331.563 307.871 331.546Z" fill="#FDFDFD"/>
<path d="M239.957 323.293C239.811 323.293 239.67 323.351 239.566 323.455C239.463 323.559 239.404 323.699 239.404 323.846C239.404 323.993 239.463 324.133 239.566 324.237C239.67 324.341 239.811 324.399 239.957 324.399C240.104 324.399 240.245 324.341 240.349 324.237C240.452 324.133 240.511 323.993 240.511 323.846C240.511 323.699 240.452 323.559 240.349 323.455C240.245 323.351 240.104 323.293 239.957 323.293Z" fill="#FDFDFD"/>
<path d="M190.245 312.555C190.111 312.572 189.989 312.637 189.9 312.738C189.811 312.839 189.761 312.969 189.761 313.104C189.761 313.238 189.811 313.368 189.9 313.469C189.989 313.57 190.111 313.636 190.245 313.652C190.379 313.636 190.501 313.57 190.591 313.469C190.68 313.368 190.729 313.238 190.729 313.104C190.729 312.969 190.68 312.839 190.591 312.738C190.501 312.637 190.379 312.572 190.245 312.555Z" fill="#FDFDFD"/>
<path d="M275.297 314.794C274.901 314.794 274.522 314.951 274.242 315.231C273.962 315.511 273.804 315.891 273.804 316.286C273.804 316.682 273.962 317.062 274.242 317.342C274.522 317.622 274.901 317.779 275.297 317.779C275.693 317.779 276.073 317.622 276.352 317.342C276.632 317.062 276.79 316.682 276.79 316.286C276.79 315.891 276.632 315.511 276.352 315.231C276.073 314.951 275.693 314.794 275.297 314.794Z" fill="#FDFDFD"/>
<path d="M197.278 307.498C196.882 307.498 196.502 307.655 196.223 307.935C195.943 308.215 195.785 308.594 195.785 308.99C195.785 309.386 195.943 309.766 196.223 310.046C196.502 310.326 196.882 310.483 197.278 310.483C197.674 310.483 198.054 310.326 198.333 310.046C198.613 309.766 198.771 309.386 198.771 308.99C198.771 308.594 198.613 308.215 198.333 307.935C198.054 307.655 197.674 307.498 197.278 307.498Z" fill="#FDFDFD"/>
<path d="M134.211 399.863C132.455 400.434 82.172 399.775 80.2756 398.537C79.5468 398.081 79.2132 390.75 79.0727 381.855V381.592C79.0727 379.766 79.0112 377.878 79.0112 375.973C79.0112 375.709 79.0112 375.446 79.0112 375.191L81.4345 349.106L115.071 349.44L111.752 375.279V376.306L111.55 381.653V382.198C111.55 382.198 130.682 391.057 132.622 392.646C134.562 394.235 135.976 399.301 134.211 399.863Z" fill="#DD6A57"/>
<path d="M134.211 399.863C132.455 400.434 82.172 399.775 80.2756 398.537C79.5468 398.081 79.2132 390.75 79.0727 381.855V381.592C79.0727 379.766 79.0112 377.878 79.0112 375.973C79.0112 375.709 79.0112 375.446 79.0112 375.191L111.761 375.279V376.306L111.559 381.654V382.198C111.559 382.198 130.69 391.057 132.631 392.646C134.571 394.235 135.976 399.301 134.211 399.863Z" fill="#EBEBEB"/>
<path d="M134.22 399.863C133.342 400.153 119.654 400.118 106.3 399.863C103.613 399.811 100.944 399.749 98.3975 399.679C88.88 399.415 81.0131 399.02 80.2844 398.546C79.5557 398.072 79.2308 390.96 79.0815 382.259C79.0815 382.136 79.0815 382.013 79.0815 381.891C79.0815 381.768 79.0815 381.697 79.0815 381.601L111.48 381.662V382.215C111.48 382.215 130.62 391.066 132.552 392.655C134.483 394.244 135.976 399.301 134.22 399.863Z" fill="#00A4FF"/>
<path d="M133.667 397.905C125.194 397.589 90.9959 397.106 82.6022 397.431C82.532 397.431 82.532 397.484 82.6022 397.484C90.9959 397.984 125.203 398.195 133.676 398.046C133.842 398.046 133.851 397.914 133.667 397.905Z" fill="#263238"/>
<path d="M115.115 381.794C111.787 381.135 107.704 381.592 105.123 383.936C105.026 384.024 105.123 384.165 105.263 384.129C108.464 383.145 111.761 382.503 115.097 382.215C115.125 382.217 115.152 382.212 115.178 382.203C115.204 382.193 115.228 382.179 115.249 382.16C115.269 382.141 115.285 382.119 115.297 382.093C115.309 382.068 115.315 382.041 115.317 382.013C115.318 381.986 115.313 381.958 115.304 381.932C115.294 381.906 115.28 381.882 115.261 381.862C115.242 381.842 115.22 381.825 115.195 381.813C115.169 381.802 115.142 381.795 115.115 381.794Z" fill="#263238"/>
<path d="M117.503 383.278C114.175 382.611 110.092 383.076 107.511 385.42C107.415 385.508 107.511 385.648 107.652 385.613C110.852 384.629 114.149 383.987 117.485 383.699C117.541 383.702 117.596 383.682 117.637 383.644C117.678 383.606 117.702 383.553 117.705 383.497C117.707 383.441 117.687 383.387 117.649 383.346C117.611 383.305 117.559 383.28 117.503 383.278Z" fill="#263238"/>
<path d="M119.891 384.762C116.563 384.094 112.481 384.56 109.899 386.895C109.803 386.992 109.899 387.132 110.04 387.097C113.24 386.108 116.536 385.467 119.873 385.183C119.929 385.185 119.984 385.165 120.025 385.127C120.066 385.09 120.091 385.037 120.093 384.981C120.095 384.925 120.075 384.871 120.037 384.83C120 384.788 119.947 384.764 119.891 384.762Z" fill="#263238"/>
<path d="M106.3 399.854C103.613 399.802 100.944 399.74 98.3975 399.67C88.88 399.407 81.0131 399.012 80.2844 398.537C79.5557 398.063 79.2308 390.952 79.0815 382.251C79.0815 382.128 79.0815 382.005 79.0815 381.882C79.0815 381.759 79.0815 381.689 79.0815 381.592C83.5418 384.709 99.2141 395.122 106.3 399.854Z" fill="#263238"/>
<path d="M113.71 381.768H77.51C77.51 381.768 84.7974 297.207 84.534 295.724C84.1652 293.827 82.0317 285.267 79.1869 274.09C78.3089 270.578 77.3344 266.837 76.3334 262.948C73.6292 252.412 70.6528 240.928 68.0627 230.918C64.1731 215.931 61.1353 204.289 61.1353 204.289H91.8653C91.8653 204.289 95.4387 215.624 99.9516 230.374C107.292 254.343 117.108 287.339 118.074 295.346C119.584 308.323 113.71 381.768 113.71 381.768Z" fill="#455A64"/>
<path d="M112.112 375.595C106.581 375.481 108.17 375.437 102.638 375.376C99.9341 375.376 82.1458 375.2 79.6171 375.622C79.6032 375.622 79.5898 375.627 79.5799 375.637C79.57 375.647 79.5645 375.66 79.5645 375.674C79.5645 375.688 79.57 375.702 79.5799 375.712C79.5898 375.721 79.6032 375.727 79.6171 375.727C82.1458 376.148 99.9341 375.99 102.638 375.964C108.17 375.911 106.581 375.867 112.112 375.753C112.133 375.753 112.153 375.745 112.168 375.73C112.183 375.715 112.191 375.695 112.191 375.674C112.191 375.653 112.183 375.633 112.168 375.618C112.153 375.604 112.133 375.595 112.112 375.595Z" fill="#263238"/>
<path d="M91.3119 290.561C90.1178 285.293 88.3443 280.201 86.799 275.064C83.6792 264.622 80.5301 254.182 77.3517 243.746C75.7655 238.531 74.1734 233.318 72.5754 228.109C71.7589 225.475 70.9511 222.841 70.1346 220.207C69.318 217.573 68.3785 215.088 67.6849 212.489C67.3864 211.436 67.2196 212.015 67.6059 213.367C68.3698 216.063 69.1161 218.767 69.9063 221.462C71.4691 226.801 73.0378 232.133 74.6124 237.46C77.7556 248.089 80.9222 258.698 84.1123 269.287L88.9062 285.214C89.7161 287.741 90.37 290.315 90.8641 292.923C91.2897 295.649 91.3957 298.416 91.1802 301.167C90.8378 306.707 90.1969 312.239 89.6788 317.77C89.1608 323.302 88.6604 328.842 88.1423 334.382C87.1239 345.398 86.1142 356.42 85.1132 367.447C84.9903 368.843 84.8674 370.239 84.7533 371.644C84.7533 372.11 85.4293 372.074 85.4732 371.644C86.6673 360.74 87.5804 349.808 88.6077 338.895L91.6631 306.312C91.9177 303.582 92.2075 300.851 92.2075 298.112C92.1925 295.569 91.8921 293.036 91.3119 290.561Z" fill="#263238"/>
<path d="M88.3181 204.297C86.1934 220.778 82.1721 251.709 79.1694 274.098C72.2507 246.933 61.1177 204.297 61.1177 204.297H88.3181Z" fill="#263238"/>
<path d="M95.8601 400.346C94.1041 400.926 43.8211 400.451 41.9158 399.222C41.1871 398.766 40.8271 391.434 40.6515 382.54C40.6515 382.444 40.6515 382.356 40.6515 382.259C40.6515 380.433 40.5812 378.554 40.5725 376.64C40.5725 376.377 40.5725 376.113 40.5725 375.859C40.4495 363.057 41.3802 349.773 41.3802 349.773L74.235 349.993L73.357 375.832V376.851L73.1726 382.198V382.751C73.1726 382.751 92.3393 391.531 94.2446 393.111C96.1499 394.692 97.6161 399.775 95.8601 400.346Z" fill="#DD6A57"/>
<path d="M95.8599 400.346C94.1039 400.926 43.8209 400.451 41.9156 399.222C41.1869 398.766 40.8269 391.434 40.6513 382.54C40.6513 382.444 40.6513 382.356 40.6513 382.259C40.6513 380.433 40.581 378.554 40.5723 376.64C40.5723 376.377 40.5723 376.113 40.5723 375.859H73.3217V376.877L73.1373 382.224V382.777C73.1373 382.777 92.304 391.557 94.2093 393.138C96.1145 394.718 97.6159 399.775 95.8599 400.346Z" fill="#EBEBEB"/>
<path d="M95.86 400.346C94.104 400.926 43.8209 400.451 41.9157 399.222C41.1869 398.766 40.827 391.434 40.6514 382.54C40.6514 382.444 40.6514 382.356 40.6514 382.259L73.0935 382.198V382.751C73.0935 382.751 92.2602 391.531 94.1655 393.111C96.0707 394.692 97.616 399.775 95.86 400.346Z" fill="#00A4FF"/>
<path d="M95.3069 398.388C86.8342 398.107 52.6273 397.747 44.2336 398.107C44.1633 398.107 44.1633 398.16 44.2336 398.16C52.6273 398.625 86.8254 398.713 95.3069 398.529C95.4825 398.529 95.4825 398.397 95.3069 398.388Z" fill="#263238"/>
<path d="M76.6932 382.356C73.3656 381.697 69.2829 382.171 66.7104 384.525C66.6138 384.612 66.7104 384.753 66.8508 384.726C70.0456 383.723 73.3398 383.07 76.6757 382.777C76.7315 382.78 76.7861 382.76 76.8272 382.722C76.8684 382.684 76.8928 382.631 76.8952 382.575C76.8975 382.519 76.8775 382.465 76.8396 382.424C76.8018 382.383 76.7491 382.358 76.6932 382.356Z" fill="#263238"/>
<path d="M79.0901 383.822C75.7625 383.172 71.6798 383.647 69.1073 386C69.0019 386.087 69.1073 386.228 69.2477 386.193C72.4438 385.191 75.7372 384.532 79.0726 384.226C79.1167 384.215 79.1561 384.19 79.1849 384.155C79.2138 384.12 79.2304 384.076 79.2324 384.031C79.2343 383.985 79.2216 383.94 79.1959 383.903C79.1703 383.865 79.1332 383.837 79.0901 383.822Z" fill="#263238"/>
<path d="M81.4784 385.297C78.1508 384.647 74.0681 385.122 71.4955 387.475C71.3989 387.562 71.4955 387.703 71.636 387.668C74.8329 386.673 78.1262 386.02 81.4608 385.719C81.5167 385.721 81.5712 385.701 81.6124 385.663C81.6536 385.625 81.678 385.573 81.6803 385.517C81.6826 385.461 81.6627 385.406 81.6248 385.365C81.5869 385.324 81.5343 385.3 81.4784 385.297Z" fill="#263238"/>
<path d="M90.8114 204.297C90.8114 204.297 90.1003 218.978 86.7463 230.637C86.4741 231.603 86.1844 232.552 85.8683 233.456C82.7866 234.701 79.8244 236.223 77.0181 238.004C77.0181 238.004 76.6669 249.813 76.3157 262.992C75.9206 277.716 75.5167 294.143 75.5957 297.629C75.903 310.658 73.9714 382.338 73.9714 382.338L37.7539 382.47C37.7539 382.47 44.295 302.432 44.2511 297.655C44.1809 289.981 46.0071 256.056 47.4119 231.314C48.2899 216.071 48.9835 204.324 48.9835 204.324L90.8114 204.297Z" fill="#455A64"/>
<path d="M72.7247 375.859C67.2021 375.771 68.7825 375.718 63.2599 375.692C60.5469 375.692 42.7674 375.595 40.2387 376.026C40.186 376.026 40.186 376.131 40.2387 376.14C42.7674 376.544 60.5556 376.315 63.2599 376.28C68.7913 376.201 67.2021 376.166 72.7335 376.026C72.7508 376.019 72.7656 376.007 72.7757 375.991C72.7858 375.976 72.7907 375.957 72.7898 375.939C72.7888 375.92 72.782 375.903 72.7703 375.888C72.7586 375.874 72.7427 375.863 72.7247 375.859Z" fill="#263238"/>
<path d="M52.0391 209.504C51.3719 229.698 50.6695 249.892 49.7651 270.086C48.8608 290.28 47.6404 310.597 45.9458 330.8C44.9976 342.091 44.102 357.974 42.8816 369.23C42.8816 369.246 42.8881 369.262 42.8996 369.273C42.9111 369.285 42.9268 369.291 42.9431 369.291C42.9594 369.291 42.975 369.285 42.9865 369.273C42.998 369.262 43.0045 369.246 43.0045 369.23C45.6385 349.203 47.1048 324.452 48.4042 304.258C49.7037 284.064 50.5729 263.87 51.2665 243.72C51.6528 232.306 51.9513 220.892 52.2938 209.478C52.2938 209.364 52.0479 209.381 52.0391 209.504Z" fill="#263238"/>
<path d="M87.3697 232.543C83.7697 234.051 80.3063 235.866 77.0181 237.969C76.9972 237.987 76.9831 238.012 76.9782 238.04C76.9733 238.067 76.9779 238.095 76.9912 238.12C77.0044 238.144 77.0256 238.163 77.0512 238.174C77.0768 238.185 77.1054 238.187 77.1322 238.18C80.6442 236.485 84.1562 234.852 87.5804 232.964C87.6293 232.932 87.6649 232.884 87.6802 232.828C87.6955 232.771 87.6896 232.711 87.6635 232.659C87.6374 232.607 87.5931 232.566 87.5388 232.545C87.4846 232.523 87.4244 232.523 87.3697 232.543Z" fill="#263238"/>
<path d="M87.5717 220.093C87.3347 221.375 87.0186 222.648 86.7464 223.93C86.4743 225.211 86.2899 226.353 85.9738 227.538C85.7125 228.691 85.1277 229.745 84.288 230.576C83.8139 231.015 83.2959 231.401 82.7954 231.796C82.5233 232.016 82.2335 232.227 81.9174 232.446C81.9174 232.271 81.9789 232.104 82.014 231.928C82.093 231.436 82.1808 230.954 82.2599 230.462C82.4442 229.373 82.6198 228.293 82.7867 227.205C83.1115 225.071 83.41 222.911 83.8578 220.804C83.8578 220.716 83.7437 220.681 83.7261 220.804C83.1905 222.894 82.6023 224.966 82.1369 227.082C81.9087 228.118 81.1009 233.228 81.0658 233.596C81.0307 233.965 80.9955 234.343 80.9867 234.72C80.9341 235.099 80.9341 235.483 80.9867 235.862C80.9867 235.958 81.1185 235.941 81.1536 235.862C81.3094 235.505 81.4186 235.131 81.4784 234.747C81.575 234.378 81.654 234.009 81.7243 233.64C81.7243 233.509 81.7243 233.368 81.7857 233.228C82.2862 232.929 82.7515 232.525 83.2257 232.183C83.6998 231.84 84.2529 231.454 84.727 231.05C85.6183 230.302 86.2613 229.301 86.5708 228.179C86.8799 226.973 87.0797 225.742 87.1679 224.5C87.3347 223.052 87.4488 221.594 87.6508 220.11C87.721 220.04 87.5893 220.04 87.5717 220.093Z" fill="#263238"/>
<path d="M78.7653 169.792C92.7431 177.58 113.007 180.179 118.706 176.772C124.729 173.181 133.122 155.612 133.728 143.812C133.86 141.178 114.201 142.24 113.719 144.014C112.305 149.282 108.055 159.08 107.151 159.107C105.966 159.107 90.9432 159.818 80.5038 158.545C67.5357 156.973 71.1179 165.507 78.7653 169.792Z" fill="#DD6A57"/>
<path d="M134.562 133.223C135.3 137.368 133.5 146.393 132.227 148.465C130.954 150.538 115.431 147.939 114.263 145.779C113.095 143.619 111.673 129.474 113.727 125.699C115.782 121.924 133.79 128.93 134.562 133.223Z" fill="#DD6A57"/>
<path d="M111.734 132.143C113.209 133.812 114.368 131.125 114.368 131.125C114.368 131.125 113.675 135.392 115.861 136.533C118.047 137.675 119.224 134.321 119.32 134.084C119.32 134.312 118.75 138.254 121.076 139.176C123.403 140.098 124.176 136.595 124.22 136.367C124.22 136.595 124.755 139.545 126.669 139.879C129.97 140.397 128.891 132.802 130.603 130.712C130.603 130.712 134.475 133.215 134.606 133.259C134.738 133.302 133.728 126.015 130.778 123.864C130.354 123.545 129.834 123.381 129.304 123.399C128.774 123.416 128.265 123.615 127.863 123.96C127.863 123.96 127.863 121.59 126.037 120.808C125.106 120.413 123.649 121.537 123.649 121.537C123.615 121 123.433 120.483 123.123 120.042C122.813 119.602 122.387 119.257 121.893 119.044C120.585 118.57 119.32 119.772 119.32 119.772C119.32 119.772 118.39 118.016 116.888 117.946C113.833 117.788 108.591 128.552 111.734 132.143Z" fill="#DD6A57"/>
<path d="M119.057 119.895C116.351 123.129 114.694 127.111 114.307 131.309C114.307 131.45 114.518 131.52 114.553 131.371C115.489 127.347 117.006 123.482 119.057 119.895Z" fill="#263238"/>
<path d="M123.614 121.441C123.61 121.433 123.604 121.427 123.597 121.423C123.591 121.418 123.582 121.416 123.574 121.416C123.566 121.416 123.558 121.418 123.551 121.423C123.544 121.427 123.538 121.433 123.535 121.441C120.592 125.031 119.034 129.557 119.145 134.198C119.145 134.365 119.32 134.497 119.329 134.312C119.408 131.116 121.621 124.759 123.614 121.441Z" fill="#263238"/>
<path d="M124.307 136.691C124.246 132.152 125.651 128.052 127.696 124.048C127.696 123.996 127.652 123.969 127.617 124.048C126.099 125.975 125.007 128.201 124.413 130.581C123.788 132.571 123.697 134.69 124.149 136.727C124.167 136.779 124.307 136.788 124.307 136.691Z" fill="#263238"/>
<path d="M114.342 131.125C114.285 131.956 114.303 132.791 114.395 133.618C114.462 134.423 114.734 135.197 115.185 135.866C115.416 136.156 115.743 136.356 116.107 136.428C116.478 136.489 116.858 136.456 117.213 136.331C117.555 136.179 117.86 135.955 118.108 135.675C118.356 135.394 118.542 135.065 118.653 134.707L119.276 132.951V134.786C119.269 135.598 119.396 136.405 119.654 137.174C119.75 137.54 119.924 137.88 120.163 138.173C120.402 138.465 120.702 138.702 121.041 138.869C121.357 139.021 121.716 139.061 122.058 138.981C122.4 138.901 122.704 138.707 122.92 138.43C123.392 137.803 123.694 137.065 123.798 136.288L124.158 134.154L124.518 136.279C124.609 136.884 124.781 137.475 125.027 138.035C125.239 138.564 125.603 139.019 126.072 139.343C126.289 139.48 126.54 139.553 126.796 139.553C127.053 139.553 127.304 139.48 127.521 139.343C127.969 138.975 128.299 138.484 128.469 137.929C128.858 136.74 129.152 135.522 129.347 134.286C129.479 133.662 129.602 133.039 129.76 132.424C129.881 131.793 130.135 131.194 130.506 130.668C130.207 131.213 130.013 131.808 129.935 132.424C129.821 133.048 129.742 133.671 129.663 134.303C129.536 135.582 129.289 136.846 128.926 138.079C128.745 138.757 128.37 139.368 127.846 139.835C127.533 140.051 127.165 140.173 126.785 140.186C126.405 140.198 126.029 140.101 125.703 139.905C125.111 139.519 124.646 138.966 124.369 138.316C124.083 137.707 123.879 137.064 123.763 136.402H124.483C124.375 137.322 124.027 138.197 123.473 138.939C123.153 139.344 122.704 139.626 122.2 139.738C121.702 139.832 121.187 139.771 120.725 139.563C120.296 139.352 119.918 139.051 119.615 138.682C119.312 138.312 119.092 137.882 118.969 137.42C118.692 136.57 118.562 135.68 118.583 134.786L119.224 134.9C119.066 135.338 118.815 135.736 118.487 136.067C118.159 136.398 117.764 136.653 117.327 136.814C116.883 136.95 116.411 136.968 115.958 136.867C115.496 136.762 115.09 136.49 114.816 136.103C114.363 135.357 114.124 134.5 114.123 133.627C114.099 132.787 114.172 131.948 114.342 131.125Z" fill="#263238"/>
<path d="M113.596 143.417C113.596 143.417 103.78 128.491 111.497 127.508C113.789 127.218 123.543 128.763 123.271 130.73C122.92 133.267 118.732 133.364 116.08 133.039C116.08 133.039 120.137 137.648 117.775 141.424C117.33 142.109 116.704 142.658 115.966 143.009C115.229 143.361 114.408 143.502 113.596 143.417Z" fill="#DD6A57"/>
<path d="M110.856 127.631C111.743 127.411 112.657 127.322 113.569 127.367C114.481 127.385 115.39 127.464 116.291 127.604C118.104 127.861 119.89 128.278 121.629 128.851C122.091 129 122.529 129.216 122.929 129.492C123.161 129.65 123.353 129.861 123.491 130.106C123.566 130.238 123.623 130.38 123.657 130.528C123.679 130.679 123.679 130.833 123.657 130.984C123.574 131.527 123.3 132.022 122.885 132.381C122.498 132.698 122.058 132.945 121.585 133.109C120.69 133.414 119.748 133.562 118.802 133.548C117.88 133.55 116.958 133.486 116.045 133.355L116.317 132.828C116.763 133.374 117.154 133.962 117.485 134.584C117.82 135.194 118.093 135.835 118.302 136.498C118.499 137.165 118.596 137.858 118.591 138.553C118.595 139.242 118.464 139.925 118.205 140.563C118.374 139.91 118.43 139.234 118.372 138.562C118.309 137.897 118.155 137.244 117.915 136.621C117.682 136.008 117.388 135.42 117.037 134.865C116.689 134.307 116.293 133.782 115.852 133.294L115.299 132.697L116.124 132.767C116.999 132.858 117.879 132.893 118.758 132.872C119.621 132.868 120.478 132.726 121.296 132.451C122.059 132.161 122.797 131.625 122.885 130.932C122.973 130.238 122.139 129.869 121.348 129.562C120.558 129.255 119.663 129 118.802 128.763C117.942 128.526 117.046 128.298 116.168 128.122C114.434 127.682 112.642 127.516 110.856 127.631Z" fill="#263238"/>
<path d="M110.514 148.501L134.562 150.09C134.562 150.09 127.538 175.446 117.002 178.238C106.466 181.031 86.9746 176.368 77.7732 169.994C68.5717 163.62 68.9317 157.553 79.4414 158.115C89.951 158.677 105.781 158.993 106.888 158.115C107.994 157.237 110.514 148.501 110.514 148.501Z" fill="#00A4FF"/>
<path d="M134.562 150.09C134.562 150.09 134.448 150.511 134.211 151.266L134.097 151.653C133.921 152.206 133.702 152.899 133.43 153.698C133.432 153.736 133.432 153.775 133.43 153.813C133.315 154.146 133.201 154.497 133.07 154.866L132.964 155.165L132.727 155.849L132.578 156.245C132.341 156.894 132.086 157.579 131.814 158.29C131.796 158.324 131.781 158.359 131.77 158.396C131.507 159.054 131.235 159.748 130.936 160.441L130.796 160.784C130.717 160.977 130.638 161.161 130.55 161.355C130.339 161.846 130.119 162.338 129.9 162.83L129.847 162.935C129.54 163.611 129.215 164.296 128.873 164.981C128.811 165.112 128.741 165.244 128.671 165.376L128.504 165.709C128.504 165.78 128.434 165.859 128.39 165.929C128.135 166.429 127.872 166.921 127.6 167.413C127.576 167.449 127.555 167.487 127.538 167.527C127.152 168.212 126.766 168.879 126.353 169.537L126.107 169.924L125.975 170.126C125.563 170.758 125.097 171.381 124.702 171.97C124.682 172.007 124.658 172.042 124.632 172.075C124.404 172.382 124.175 172.681 123.938 172.953L123.824 173.093C123.543 173.445 123.254 173.778 122.946 174.103L122.595 174.489C122.323 174.77 122.051 175.043 121.77 175.297C121.648 175.421 121.519 175.539 121.383 175.648C121.023 175.973 120.655 176.263 120.286 176.526L120.119 176.641C119.868 176.822 119.607 176.989 119.338 177.141L119.232 177.202C118.591 177.582 117.903 177.877 117.187 178.08C117.132 178.102 117.077 178.12 117.02 178.133L116.8 178.186C116.126 178.359 115.443 178.496 114.754 178.598H114.64L114.245 178.66C113.71 178.73 113.165 178.792 112.603 178.836H112.208C111.55 178.836 110.865 178.915 110.171 178.915H110.057H108.011H107.625C106.958 178.915 106.273 178.844 105.579 178.783H105.474L104.359 178.677L103.428 178.572C103.297 178.572 103.165 178.572 103.042 178.519C102.366 178.44 101.681 178.344 100.996 178.23H100.882C100.206 178.124 99.53 178.001 98.8451 177.87C98.7119 177.852 98.5799 177.825 98.45 177.791C97.7652 177.659 97.0804 177.519 96.4043 177.36H96.2989C95.6141 177.202 94.9293 177.036 94.2532 176.86C94.1221 176.834 93.993 176.799 93.8669 176.755L93.5947 176.684L93.182 176.57C92.7255 176.456 92.304 176.324 91.8211 176.184H91.7158C91.0309 175.982 90.3461 175.763 89.67 175.543L89.2749 175.411C88.5813 175.174 87.9053 174.928 87.238 174.683H87.1238L86.8956 174.595L85.9122 174.208L85.0342 173.866L84.6479 173.699C83.9455 173.401 83.2606 173.093 82.6021 172.777L82.4968 172.725C82.1192 172.54 81.7417 172.356 81.3817 172.163L81.1798 172.057L80.451 171.662L80.0647 171.452C79.3448 171.039 78.6511 170.574 78.019 170.187L77.9048 170.108L77.7907 170.029L77.2463 169.643C76.7634 169.3 76.3157 168.949 75.8942 168.607C75.7537 168.501 75.6308 168.396 75.4991 168.282C75.2269 168.054 74.9635 167.825 74.7177 167.597L74.5948 167.483C74.1733 167.085 73.7958 166.699 73.4622 166.324L73.348 166.201C73.1197 165.946 72.9178 165.692 72.7334 165.446C72.549 165.2 72.5315 165.183 72.4437 165.051C71.9797 164.419 71.6209 163.716 71.3813 162.97C71.3734 162.935 71.3734 162.899 71.3813 162.865C71.3325 162.729 71.3001 162.587 71.2847 162.443C71.1968 162.047 71.1968 161.637 71.2847 161.24C71.3082 161.096 71.3464 160.955 71.3989 160.819C71.4443 160.683 71.5063 160.553 71.5832 160.433C71.9857 159.749 72.6032 159.218 73.3392 158.922L73.4534 158.87C73.9539 158.657 74.4745 158.495 75.0074 158.387L75.4903 158.299H75.5869H75.8854C76.5605 158.207 77.2412 158.163 77.9224 158.167H78.0365C78.4843 158.167 78.9672 158.167 79.4765 158.167H80.0823H80.4686C81.1359 158.167 81.8119 158.238 82.5143 158.273H82.6197L84.6654 158.352H85.0518L87.0887 158.422H87.2029L89.2398 158.492H89.6349L91.6807 158.545H91.786L93.8318 158.589H94.2181H96.2638H98.81H100.847H100.97C101.707 158.589 102.392 158.589 103.016 158.536H103.402C104.201 158.536 104.895 158.457 105.448 158.396H105.553L106.036 158.334L106.572 158.229C106.697 158.203 106.817 158.152 106.923 158.08C107.21 157.759 107.439 157.391 107.599 156.991C107.713 156.754 107.836 156.482 107.95 156.183C107.953 156.157 107.953 156.13 107.95 156.104L108.082 155.788C108.328 155.165 108.582 154.462 108.828 153.751C108.828 153.751 108.828 153.672 108.828 153.637C109.065 152.943 109.293 152.241 109.504 151.591C109.504 151.459 109.583 151.328 109.627 151.205L109.952 150.169C109.952 150.037 110.031 149.914 110.066 149.791C110.101 149.668 110.206 149.343 110.259 149.159C110.255 149.124 110.255 149.089 110.259 149.054C110.365 148.667 110.435 148.439 110.435 148.439L112.068 148.545H112.463L114.5 148.685H114.614L116.774 148.922H117.16L119.206 149.054H119.311H119.847L121.357 149.15H121.445H121.743L123.789 149.291H123.903L125.94 149.423H126.335L128.372 149.554H128.486L130.532 149.686H130.918L132.964 149.826H133.07L134.562 150.09Z" fill="#00A4FF"/>
<path opacity="0.3" d="M71.2586 161.214V162.417C71.1706 162.021 71.1706 161.61 71.2586 161.214ZM73.3043 158.896V166.14L73.4185 166.263V158.843L73.3043 158.896ZM75.552 158.255H75.4554V168.238C75.5871 168.352 75.7101 168.458 75.8505 168.563V158.246L75.552 158.255ZM77.8875 158.08V170.064L78.0016 170.143V158.106L77.8875 158.08ZM80.0474 158.132V171.408L80.4337 171.618V158.185L80.0474 158.132ZM82.4794 158.255V172.716L82.5848 172.769V158.29L82.4794 158.255ZM84.6305 158.343V173.655L85.0169 173.822V158.396L84.6305 158.343ZM87.0626 158.431V174.639H87.1767V158.396L87.0626 158.431ZM89.2137 158.51V175.411L89.6088 175.543V158.58L89.2137 158.51ZM91.6545 158.571V176.184H91.7599V158.58L91.6545 158.571ZM93.8056 158.615V176.781C93.9317 176.825 94.0608 176.861 94.192 176.886V158.624L93.8056 158.615ZM96.2377 158.615V177.352H96.3431V158.685L96.2377 158.615ZM98.3888 158.615V177.896C98.5187 177.931 98.6506 177.957 98.7839 177.975V158.694L98.3888 158.615ZM100.821 158.615V178.256H100.935V158.677L100.821 158.615ZM102.981 158.562V178.563C103.104 178.563 103.235 178.563 103.367 178.616V158.58L102.981 158.562ZM105.413 158.404V178.827H105.518V158.457L105.413 158.404ZM107.915 156.183C107.801 156.482 107.678 156.754 107.564 156.991V178.941H107.95V156.166C107.942 156.193 107.93 156.22 107.915 156.245V156.183ZM109.996 150.169V179.011H110.11V149.853C110.075 149.976 110.031 150.099 109.996 150.23V150.169ZM112.147 148.544V178.923H112.542V148.632L112.147 148.544ZM114.579 148.711V178.66H114.693V148.773L114.579 148.711ZM116.774 148.922V178.3L116.994 178.247C117.05 178.234 117.106 178.216 117.16 178.195V148.922H116.774ZM119.206 149.08V177.317L119.312 177.255V149.08H119.206ZM121.445 149.229H121.357V175.762C121.493 175.653 121.621 175.535 121.744 175.411V149.221L121.445 149.229ZM123.789 149.387V173.199L123.903 173.058V149.387H123.789ZM125.94 149.528V170.214L126.072 170.012L126.318 169.625V149.545L125.94 149.528ZM128.372 149.686V165.982C128.416 165.911 128.452 165.832 128.487 165.762V149.695L128.372 149.686ZM130.532 149.826V161.407C130.62 161.214 130.699 161.03 130.778 160.836L130.919 160.494V149.844L130.532 149.826ZM132.964 149.993V155.173L133.07 154.875V150.002L132.964 149.993ZM121.357 149.221L119.847 149.124H110.338C110.335 149.159 110.335 149.194 110.338 149.229H121.357V149.221ZM109.706 151.275C109.706 151.398 109.627 151.53 109.583 151.661H134.167L134.281 151.275H109.706ZM108.907 153.707C108.907 153.707 108.907 153.786 108.907 153.821H133.491C133.494 153.783 133.494 153.745 133.491 153.707H108.907ZM108.117 155.858L107.985 156.174C107.989 156.201 107.989 156.227 107.985 156.253H132.578L132.727 155.858H108.117ZM84.6657 158.387L82.6199 158.308H75.4554L74.9725 158.396H85.0169L84.6657 158.387ZM106.616 158.299L106.08 158.404H131.7C131.711 158.368 131.726 158.333 131.744 158.299H106.616ZM71.5571 160.441C71.4801 160.562 71.4182 160.692 71.3727 160.828H130.743L130.884 160.485L71.5571 160.441ZM71.3552 162.873C71.3473 162.908 71.3473 162.944 71.3552 162.979H129.769L129.821 162.873H71.3552ZM72.4 165.025C72.4878 165.153 72.5844 165.285 72.6897 165.42H128.618C128.689 165.288 128.759 165.156 128.82 165.025H72.4ZM74.5511 167.457L74.674 167.571H127.486C127.503 167.531 127.523 167.493 127.547 167.457H74.5511ZM77.1851 169.616L77.7295 170.003H126.019L126.265 169.616H77.1851ZM81.1449 172.049L81.3468 172.154H124.544C124.571 172.121 124.594 172.086 124.615 172.049H81.1449ZM85.8334 174.2L86.8168 174.586H122.516L122.867 174.2H85.8334ZM93.1032 176.632L93.5159 176.746H120.04L120.207 176.632H93.1032ZM104.298 178.774L105.413 178.879H105.518C106.212 178.941 106.897 178.985 107.564 179.011H107.95H109.996H110.11C110.804 179.011 111.489 179.011 112.147 178.932H112.542C113.104 178.888 113.648 178.827 114.184 178.756L104.298 178.774Z" fill="white"/>
<path d="M90.074 175.727C85.7311 174.406 81.5938 172.485 77.782 170.02C69.7044 164.445 69.002 159.08 76.026 158.229L90.074 175.727Z" fill="#263238"/>
<path d="M110.163 152.741C111.093 152.952 112.068 152.987 113.016 153.11C113.964 153.233 114.913 153.312 115.87 153.391C117.705 153.54 119.548 153.663 121.384 153.777L126.906 154.12C128.811 154.234 130.743 154.445 132.648 154.401C132.662 154.396 132.673 154.387 132.681 154.375C132.69 154.363 132.694 154.349 132.694 154.335C132.694 154.321 132.69 154.307 132.681 154.295C132.673 154.283 132.662 154.274 132.648 154.269C130.769 153.953 128.829 153.874 126.932 153.707L121.322 153.224C119.452 153.075 117.573 152.926 115.703 152.803C114.825 152.75 113.859 152.697 112.937 152.68C112.011 152.611 111.082 152.591 110.154 152.618C110.084 152.627 110.101 152.733 110.163 152.741Z" fill="#263238"/>
<path d="M45.2259 226.107C45.3576 226.239 98.3976 222.595 98.8454 222.033C99.46 221.217 83.3838 164.621 77.4309 157.939C76.1578 156.499 72.2859 156.35 69.0548 156.991C68.2086 157.152 67.3775 157.384 66.5701 157.684H66.4911C65.8512 157.928 65.2575 158.278 64.7351 158.72C56.1658 166.622 50.3359 192.515 49.0979 200.25C47.0082 213.016 44.7781 225.642 45.2259 226.107Z" fill="#00A4FF"/>
<path opacity="0.3" d="M45.8931 219.724V226.081H45.7877V220.04H45.8404L45.8931 219.724ZM48.0793 206.308C48.0793 206.44 48.0793 206.572 48.0091 206.694C47.9388 206.817 48.0091 207.002 47.9388 207.151V225.967H48.3251V204.807C48.29 205.298 48.1583 205.808 48.0793 206.308ZM50.3709 193.639V225.817H50.485V193.138C50.4411 193.305 50.406 193.481 50.3709 193.639ZM52.8732 183.761L52.5308 184.973V225.668H52.9171V183.612C52.8984 183.66 52.8837 183.71 52.8732 183.761ZM54.9628 177.062V225.51H55.0682V176.755L54.9628 177.062ZM57.1139 171.302V225.37H57.5002V170.38L57.1139 171.302ZM59.546 166.034V225.22H59.6513V165.824L59.546 166.034ZM61.6971 162.373V225.071H61.9605H62.0922V161.855L61.6971 162.373ZM64.094 159.291V224.887H64.2082V159.177C64.1723 159.217 64.1342 159.255 64.094 159.291ZM66.57 157.702H66.491L66.289 157.79V224.746H66.6753V157.623L66.57 157.702ZM68.7211 157.079V224.606H68.8264V157.008L68.7211 157.079ZM70.8722 156.736V224.43H71.2585V156.666L70.8722 156.736ZM73.3042 156.666V224.272H73.4184V156.666H73.3042ZM75.4553 156.938V224.079H75.8504V157.008L75.4553 156.938ZM77.8874 158.536V223.947H78.0015V158.712L77.8874 158.536ZM80.2756 162.97L80.2229 162.865C80.1702 162.733 80.1087 162.601 80.0473 162.47V223.728H80.4336V163.321L80.2756 162.97ZM82.4793 223.552H82.5847V168.554L82.4793 168.291V223.552ZM84.806 174.586C84.806 174.454 84.7095 174.323 84.6656 174.2C84.6217 174.077 84.6656 174.129 84.6656 174.094V223.385H85.0519V175.192L84.806 174.586ZM87.1152 181.329C87.1202 181.291 87.1202 181.253 87.1152 181.215V223.201H87.2293V181.513C87.1591 181.452 87.1327 181.408 87.1152 181.329ZM89.3892 188.353C89.3892 188.221 89.3102 188.098 89.2663 187.967C89.254 187.907 89.2364 187.848 89.2136 187.791V223.025H89.6087V189.029C89.556 188.801 89.4682 188.573 89.3892 188.344V188.353ZM91.6544 195.614V222.832H91.7598V195.957L91.6544 195.614ZM93.8055 202.805V222.674H94.0865H94.1919V204.236C94.0602 203.683 93.946 203.244 93.8055 202.796V202.805ZM96.2376 211.33V222.411H96.343V211.699L96.2376 211.33ZM98.6082 220.461C98.6082 220.339 98.5555 220.216 98.5204 220.075C98.4853 219.935 98.4414 219.715 98.3887 219.513V222.147C98.5223 222.127 98.6543 222.098 98.7838 222.059V221.313C98.7399 221.085 98.6872 220.795 98.6082 220.453V220.461ZM77.7381 158.299H65.2881L65.1388 158.404H77.8172L77.7381 158.299ZM79.2483 160.837H62.8034C62.8999 160.705 63.0053 160.582 63.1107 160.45H79.02C79.1166 160.564 79.1781 160.696 79.2483 160.828V160.837ZM80.2756 162.97H61.2844C61.3109 162.937 61.3343 162.902 61.3547 162.865H80.2229L80.2756 162.97ZM81.3292 165.411H59.8708L60.0816 165.016H81.1536C81.2238 165.156 81.2765 165.288 81.3292 165.42V165.411ZM82.2072 167.562H58.7733L58.826 167.448H82.1545C82.1545 167.448 82.1808 167.536 82.1984 167.571L82.2072 167.562ZM83.1291 169.994H57.6671C57.7197 169.862 57.7724 169.739 57.8339 169.608H82.9886C83.0325 169.748 83.0852 169.871 83.1291 169.994ZM83.928 172.145H56.7715C56.768 172.11 56.768 172.075 56.7715 172.04H83.8929C83.8929 172.04 83.9193 172.119 83.928 172.154V172.145ZM84.806 174.577H55.832C55.832 174.446 55.9198 174.323 55.9725 174.191H84.6656C84.7095 174.323 84.7621 174.454 84.806 174.586V174.577ZM85.5611 176.737H55.0682C55.0682 176.737 55.0682 176.658 55.1121 176.623H85.526C85.5331 176.665 85.5448 176.706 85.5611 176.746V176.737ZM86.4391 179.169H54.2604C54.3043 179.037 54.3394 178.906 54.3833 178.774H86.2635L86.4391 179.169ZM87.1591 181.32H53.558C53.5618 181.282 53.5618 181.244 53.558 181.206H87.0098C87.0523 181.24 87.088 181.282 87.1152 181.329L87.1591 181.32ZM87.9668 183.752H52.8732C52.8837 183.701 52.8984 183.652 52.9171 183.603C52.9364 183.523 52.9599 183.444 52.9873 183.366H87.8L87.9668 183.752ZM88.6605 185.903H52.2761V185.798H88.5551C88.5551 185.798 88.6078 185.877 88.6166 185.912L88.6605 185.903ZM89.4331 188.335H51.6791L51.7757 187.949H89.3102C89.3102 188.09 89.3541 188.213 89.3892 188.344L89.4331 188.335ZM90.1179 190.495H51.0996V190.381H90.0126C90.0126 190.381 90.0653 190.46 90.074 190.504L90.1179 190.495ZM90.8818 192.927H50.5289C50.5289 192.796 50.5904 192.664 50.6255 192.532H90.715C90.7501 192.673 90.794 192.822 90.8379 192.936L90.8818 192.927ZM91.5403 195.079H50.046V194.973H91.4262C91.4547 195.008 91.4783 195.046 91.4964 195.087L91.5403 195.079ZM92.2778 197.511H49.5631L49.6421 197.124H92.1198C92.19 197.265 92.19 197.396 92.2339 197.519L92.2778 197.511ZM92.9188 199.662H49.168C49.168 199.662 49.168 199.591 49.168 199.556H92.831L92.9188 199.662ZM93.6475 202.094H48.7729C48.7729 201.962 48.8168 201.839 48.8344 201.707H93.4895C93.5246 201.848 93.5597 201.98 93.6036 202.103L93.6475 202.094ZM94.2797 204.254H48.4129C48.4178 204.216 48.4178 204.177 48.4129 204.139H94.1831C94.1975 204.173 94.2151 204.206 94.2358 204.236L94.2797 204.254ZM94.9733 206.686H48.0091C48.0091 206.563 48.0091 206.431 48.0793 206.299H94.824L94.9733 206.686ZM95.5967 208.837H47.6579C47.6621 208.802 47.6621 208.766 47.6579 208.731H95.5001C95.5127 208.772 95.5304 208.81 95.5528 208.846L95.5967 208.837ZM96.2727 211.269H47.254C47.254 211.137 47.254 211.014 47.3242 210.883H96.1147C96.1586 211.023 96.1937 211.155 96.2288 211.26L96.2727 211.269ZM96.861 213.42H46.9028C46.9028 213.42 46.9028 213.35 46.9028 213.315H96.7732L96.861 213.42ZM97.5195 215.861H46.534C46.534 215.738 46.534 215.606 46.6043 215.466H97.3702L97.5195 215.861ZM98.0726 218.012H46.1653C46.1611 217.974 46.1611 217.936 46.1653 217.898H97.9673L98.0726 218.012ZM98.6521 220.444H45.7877V220.04H98.5204C98.5555 220.207 98.5819 220.33 98.6082 220.453L98.6521 220.444ZM95.2718 222.49L94.2358 222.586H45.4716C45.4759 222.551 45.4759 222.516 45.4716 222.481L95.2718 222.49ZM67.5358 224.641L66.7192 224.702H66.3329L64.2872 224.843H64.094L62.0571 224.983H45.1995C45.1995 224.869 45.1995 224.737 45.1995 224.597L67.5358 224.641Z" fill="white"/>
<path d="M64.252 224.878C53.918 225.607 45.2785 226.16 45.2258 226.107C44.7517 225.642 46.9818 213.016 49.0714 200.259C50.2743 192.734 55.832 168.001 63.9974 159.405L64.252 224.878Z" fill="#263238"/>
<path d="M78.7917 160.257C79.099 162.654 79.6697 168.22 75.8768 168.159C74.3354 167.99 72.8754 167.38 71.6711 166.403C70.4236 165.52 69.2756 164.504 68.2469 163.374C67.0505 162.16 65.9552 160.85 64.972 159.458C64.972 159.397 64.8403 159.458 64.8842 159.528C65.8763 160.933 66.728 162.417 67.8606 163.725C68.9375 165.009 70.184 166.14 71.5658 167.088C72.849 168.083 74.4045 168.665 76.026 168.756C76.7294 168.741 77.4062 168.484 77.9421 168.028C78.478 167.573 78.8401 166.946 78.9673 166.254C79.358 164.267 79.298 162.218 78.7917 160.257Z" fill="#263238"/>
<path d="M88.1072 231.217L118.012 236.327L130.883 194.982L100.987 189.872L88.1072 231.217Z" fill="#A6A6A6"/>
<path d="M89.5823 231.472L119.478 236.573L132.35 195.228L102.454 190.127L89.5823 231.472Z" fill="#DBDBDB"/>
<path d="M115.211 212.138C114.997 212.913 114.506 213.582 113.831 214.019C113.156 214.456 112.345 214.63 111.55 214.509C111.174 214.456 110.814 214.323 110.494 214.119C110.174 213.914 109.903 213.643 109.698 213.323C109.492 213.004 109.359 212.644 109.306 212.268C109.253 211.892 109.281 211.51 109.39 211.146C109.606 210.373 110.098 209.705 110.773 209.27C111.447 208.835 112.258 208.662 113.051 208.784C113.426 208.837 113.785 208.97 114.104 209.174C114.423 209.378 114.694 209.648 114.899 209.966C115.104 210.285 115.238 210.643 115.292 211.018C115.346 211.393 115.318 211.775 115.211 212.138Z" fill="white"/>
<path d="M60.7663 162.364C51.7053 174.121 31.0811 205.193 36.5774 211.532C45.6559 222.016 67.7464 231.217 74.6299 233.289C77.6151 234.167 88.2213 212.463 85.4029 210.681C82.0314 208.538 59.7653 201.303 59.8795 199.267C59.9497 198.108 62.8735 185.684 65.2353 173.304C68.001 158.949 63.8656 158.334 60.7663 162.364Z" fill="#DD6A57"/>
<path d="M74.5686 209.162C74.5686 209.162 83.6559 206.528 89.679 205.035C93.0417 204.218 98.9331 203.332 101.672 203.859C105.781 204.649 122.437 210.584 121.085 214.658C119.865 218.345 106.159 211.427 106.159 211.427C106.159 211.427 120.558 217.187 118.275 221.348C115.993 225.51 101.593 215.65 101.593 215.65C101.593 215.65 116.256 221.901 113.218 225.826C110.918 228.785 97.4141 220.558 97.4141 220.558C97.4141 220.558 109.978 226.019 107.748 229.162C105.281 232.674 92.3042 225.861 92.3042 225.861C85.2802 232.885 79.0552 233.394 74.5861 233.219C73.5062 233.21 74.5686 209.162 74.5686 209.162Z" fill="#DD6A57"/>
<path d="M102.015 209.407C112.955 212.84 117.266 217.871 117.125 217.766C113.78 215.132 107.889 212.322 106.229 211.55C104.57 210.777 103.639 210.233 101.989 209.469C101.945 209.451 101.98 209.399 102.015 209.407Z" fill="#263238"/>
<path d="M98.4677 215.044C102.958 216.239 107.199 218.228 110.988 220.918C111.129 221.023 111.041 221.058 110.883 220.979C108.802 219.943 100.566 216.045 98.4414 215.123L98.4677 215.044Z" fill="#263238"/>
<path d="M95.0873 219.689C98.5425 220.686 101.782 222.318 104.64 224.5C104.789 224.606 104.64 224.65 104.499 224.562C101.356 222.902 98.8978 221.585 95.0434 219.803C94.982 219.777 95.0171 219.663 95.0873 219.689Z" fill="#263238"/>
<path d="M72.1804 204.622L60.7664 229.487C60.7664 229.487 36.5511 217.898 34.8654 208.995C33.1796 200.092 55.0594 168.668 59.2299 163.541C60.4064 162.092 63.6199 158.8 65.1915 159.151C66.9475 159.581 66.7895 162.171 66.7017 168.185C66.5787 176.193 60.3362 198.222 60.8191 199.117C61.302 200.013 72.1804 204.622 72.1804 204.622Z" fill="#00A4FF"/>
<path opacity="0.3" d="M36.7268 200.294V212.84L36.6127 212.682V200.575C36.6478 200.478 36.6829 200.39 36.7268 200.294ZM39.115 195.087C38.9921 195.324 38.8779 195.561 38.7638 195.79V215.158L39.0887 215.474L39.1589 215.545V194.999L39.115 195.087ZM41.2046 191.119V217.406L41.31 217.494V190.926L41.2046 191.119ZM43.3557 187.299V219.083L43.7421 219.373V186.676C43.6191 186.86 43.4874 187.08 43.3557 187.299ZM45.7878 183.243V220.83L45.8932 220.909V183.067L45.7878 183.243ZM47.9389 179.801V222.27L48.2901 222.498V179.187L47.9389 179.801ZM50.371 176.043V223.798L50.4851 223.868V175.868L50.371 176.043ZM52.5308 172.804V225.089L52.9172 225.317V172.242L52.5308 172.804ZM54.9629 226.467L55.0683 226.528V169.116L54.9629 169.265V226.467ZM57.114 166.28V227.635L57.5003 227.845V165.753L57.114 166.28ZM59.5461 163.128V228.899L59.6514 228.952V163.014C59.6119 163.048 59.5765 163.086 59.5461 163.128ZM61.8464 160.828L61.6971 160.959V194.104C61.7849 193.735 61.8728 193.34 61.9693 192.936C61.9693 192.804 62.0308 192.673 62.0571 192.541C62.0612 192.488 62.0612 192.436 62.0571 192.383V160.626L61.8464 160.828ZM61.6971 227.389L61.785 227.196L61.8376 227.082L62.0923 226.528V200.03L61.6971 199.82V227.389ZM64.0941 159.318V183.55C64.0941 183.489 64.0941 183.436 64.0941 183.375C64.0941 183.313 64.0941 183.155 64.1643 183.041V159.274L64.0941 159.318ZM64.0941 222.112L64.2082 221.857V201.11L64.0941 201.058V222.112ZM66.3593 202.102H66.254V217.406L66.6403 216.572V202.225L66.3593 202.102ZM66.4471 160.836C66.4236 160.705 66.3884 160.576 66.3418 160.45C66.3193 160.369 66.2899 160.289 66.254 160.213V172.347V172.163C66.254 172.163 66.254 172.092 66.254 172.057C66.3593 171.329 66.4384 170.644 66.491 170.012C66.491 169.88 66.491 169.748 66.491 169.625C66.5349 169.116 66.5525 168.651 66.5613 168.22C66.5613 168.027 66.5613 167.843 66.5613 167.659V162.461C66.5865 161.915 66.56 161.368 66.4823 160.828L66.4471 160.836ZM68.686 203.147V212.138L68.7914 211.91V203.182L68.686 203.147ZM70.8371 204.078V207.476L71.1883 206.703V206.633V204.236L70.9952 204.157L70.8371 204.078ZM66.3769 160.441H62.3381L62.1098 160.626L61.864 160.828H66.4998C66.4706 160.695 66.4295 160.566 66.3769 160.441ZM59.7656 162.873L59.7041 162.97H66.7281V162.865L59.7656 162.873ZM58.0096 165.025L57.7198 165.42H66.7281V165.025H58.0096ZM56.2536 167.457C56.2312 167.497 56.2047 167.535 56.1745 167.571H66.7105V167.457H56.2536ZM54.7346 169.616L54.4361 169.994H66.5613C66.5613 169.862 66.5613 169.731 66.5613 169.608L54.7346 169.616ZM53.0489 172.049L52.9786 172.154H66.3154C66.3154 172.154 66.3154 172.084 66.3154 172.049H53.0489ZM51.5914 174.2C51.5124 174.331 51.4246 174.454 51.328 174.586H65.9291C65.9291 174.454 65.9818 174.331 65.9993 174.2H51.5914ZM49.9846 176.632L49.9056 176.746H65.5428V176.632H49.9846ZM48.5798 178.774C48.5008 178.906 48.4218 179.037 48.334 179.169H65.016C65.0508 179.039 65.0771 178.907 65.095 178.774H48.5798ZM47.0433 181.206L46.9731 181.32H64.6121V181.206H47.0433ZM45.7088 183.366L45.4717 183.752H64.0941C64.1158 183.683 64.1334 183.613 64.1468 183.542C64.1468 183.48 64.1468 183.427 64.1468 183.366H45.7088ZM44.2337 185.798C44.2166 185.835 44.196 185.87 44.1723 185.903H63.6024C63.5984 185.868 63.5984 185.833 63.6024 185.798H44.2337ZM43.0221 187.958L42.8026 188.344H63.0405C63.0405 188.213 63.102 188.081 63.1283 187.958H43.0221ZM41.6436 190.39L41.5822 190.504H62.54C62.532 190.466 62.532 190.428 62.54 190.39H41.6436ZM40.4759 192.541C40.4057 192.673 40.3354 192.804 40.274 192.936H61.9693C61.9693 192.804 62.0308 192.673 62.0571 192.541H40.4759ZM39.2028 194.982L39.1589 195.07H61.4601V194.964L39.2028 194.982ZM38.1668 197.133C38.0965 197.265 38.0438 197.396 37.9824 197.519H60.9596C60.9596 197.396 61.0123 197.273 61.0386 197.133H38.1668ZM61.3372 199.565H37.0341L36.9815 199.67H61.4601L61.3372 199.565ZM66.333 202.059L65.5867 201.716H36.1649C36.1649 201.848 36.0771 201.971 36.0244 202.102H66.3945L66.333 202.059ZM71.2586 204.236L71.0654 204.157H35.3659C35.3628 204.195 35.3628 204.233 35.3659 204.271H71.3639L71.2586 204.236ZM34.8743 206.317C34.8743 206.449 34.8743 206.58 34.8216 206.703H71.2235V206.633L71.3727 206.317H34.8743ZM34.7952 208.749C34.7867 208.784 34.7867 208.82 34.7952 208.854H70.2401V208.749H34.7952ZM35.4976 210.9C35.5591 211.032 35.6293 211.163 35.6996 211.286H69.1162L69.2918 210.9H35.4976ZM37.1132 213.332C37.1366 213.369 37.1631 213.404 37.1922 213.437H68.1241L68.1768 213.332H37.1132ZM39.0887 215.483L39.1589 215.553L39.5013 215.878H67.0003L67.1846 215.483H39.0887ZM41.8544 217.915L41.9948 218.029H66.0081L66.0608 217.915H41.8544ZM44.6903 220.04L45.2434 220.426H64.8931L65.0687 220.04H44.6903ZM48.2901 222.498L48.4218 222.577H63.9009L63.9536 222.472L48.2901 222.498ZM51.8021 224.65L52.443 225.036H62.7771L62.9615 224.65H51.8021ZM56.078 227.064L56.2887 227.178H61.785L61.8376 227.064H56.078ZM60.2046 229.215L60.7313 229.47L60.8455 229.215H60.2046Z" fill="white"/>
<path d="M58.1413 224.562C58.6769 223.763 59.0193 222.867 59.5022 222.024C59.9851 221.181 60.3802 220.321 60.7928 219.461C61.5947 217.798 62.3762 216.13 63.1371 214.456C63.901 212.779 64.6736 211.102 65.4287 209.425C66.1838 207.748 67.1057 205.957 67.7554 204.157C67.7635 204.142 67.7653 204.124 67.7604 204.108C67.7554 204.091 67.7442 204.077 67.729 204.069C67.7139 204.061 67.6961 204.059 67.6797 204.064C67.6632 204.069 67.6494 204.08 67.6412 204.096C66.6667 205.737 65.8852 207.52 65.0687 209.232C64.2522 210.944 63.4181 212.612 62.6015 214.298C61.785 215.984 60.9772 217.687 60.187 219.39C59.8007 220.268 59.4319 221.076 59.0807 221.928C58.7295 222.779 58.2905 223.622 58.0271 224.509C58.0008 224.588 58.1062 224.614 58.1413 224.562Z" fill="#263238"/>
<path d="M72.075 204.614C71.2672 204.104 63.8306 199.995 60.9507 199.223C60.9352 199.219 60.9187 199.22 60.904 199.227C60.8893 199.233 60.8774 199.245 60.8702 199.259C60.863 199.274 60.861 199.29 60.8644 199.306C60.8679 199.321 60.8767 199.335 60.8893 199.346C63.5847 201.339 71.1443 204.482 72.0399 204.736C72.1189 204.754 72.1365 204.649 72.075 204.614Z" fill="#263238"/>
<path d="M75.868 165.604C73.1726 166.052 68.3172 161.319 66.728 157.913C66.6227 157.676 67.1231 155.279 67.606 152.434C67.887 150.678 68.1592 148.72 68.2821 146.911C68.2821 146.543 69.5201 147.307 69.5201 147.307L71.8205 148.026L79.4327 150.406C78.6386 152.623 78.1167 154.929 77.8786 157.272C77.8562 157.52 77.8562 157.77 77.8786 158.018C77.8786 158.018 77.8786 158.097 77.8786 158.15C78.0455 159.546 78.4757 165.13 75.868 165.604Z" fill="#DD6A57"/>
<path d="M77.9049 157.992C77.9049 157.992 77.9049 158.071 77.9049 158.123C77.5163 158.154 77.1259 158.154 76.7372 158.123C69.1162 157.447 68.8352 147.684 68.8352 147.684L71.838 148.018L79.4502 150.397C78.6561 152.614 78.1342 154.92 77.8962 157.263C77.8776 157.506 77.8806 157.75 77.9049 157.992Z" fill="#263238"/>
<path d="M80.2581 129.905C80.2581 129.905 83.8315 130.967 84.8149 134.382C85.7982 137.798 85.3944 141.529 85.1046 141.731C84.8149 141.933 80.2581 129.905 80.2581 129.905Z" fill="#263238"/>
<path d="M65.5691 135.884C64.8228 140.028 68.3085 151.328 71.4605 153.567C76.0261 156.806 82.8218 156.359 85.4031 151.029C87.9054 145.858 83.1028 131.213 79.6522 129.246C74.5598 126.357 66.6666 129.755 65.5691 135.884Z" fill="#DD6A57"/>
<path d="M77.4747 142.082C77.4747 142.082 77.422 142.135 77.4747 142.161C77.7293 142.916 77.8961 143.83 77.2815 144.286C77.2815 144.286 77.2815 144.339 77.2815 144.33C78.0629 143.953 77.8346 142.776 77.4747 142.082Z" fill="#263238"/>
<path d="M76.5527 141.485C75.2972 141.766 75.9469 144.26 77.1059 143.996C78.2648 143.733 77.5975 141.257 76.5527 141.485Z" fill="#263238"/>
<path d="M82.1721 140.739C82.1721 140.739 82.2424 140.739 82.2511 140.792C82.4267 141.573 82.7604 142.434 83.5242 142.504V142.548C82.6462 142.653 82.216 141.503 82.1721 140.739Z" fill="#263238"/>
<path d="M82.6461 139.756C83.8665 139.343 84.6128 141.801 83.5241 142.188C82.4354 142.574 81.654 140.142 82.6461 139.756Z" fill="#263238"/>
<path d="M75.2708 140.607C75.5869 140.432 75.8503 140.221 76.1488 140.019C76.4474 139.817 76.7722 139.642 76.9215 139.246C76.9553 139.131 76.9494 139.008 76.9049 138.897C76.8603 138.785 76.7796 138.692 76.6756 138.632C76.4526 138.542 76.2098 138.514 75.9722 138.549C75.7345 138.585 75.5106 138.683 75.3235 138.834C74.9034 139.089 74.591 139.488 74.4455 139.958C74.4203 140.065 74.4263 140.177 74.4627 140.282C74.4991 140.386 74.5645 140.477 74.6512 140.545C74.7379 140.614 74.8422 140.656 74.952 140.667C75.0618 140.678 75.1724 140.657 75.2708 140.607Z" fill="#263238"/>
<path d="M83.2872 138.254C82.9363 138.276 82.5844 138.276 82.2336 138.254C81.8611 138.309 81.4812 138.238 81.1536 138.052C81.063 137.974 81.0002 137.868 80.9749 137.751C80.9496 137.634 80.963 137.512 81.0131 137.403C81.1496 137.205 81.3359 137.046 81.5533 136.943C81.7706 136.839 82.0113 136.795 82.2511 136.814C82.7426 136.782 83.2283 136.936 83.612 137.245C83.6961 137.319 83.7566 137.417 83.7863 137.525C83.8159 137.634 83.8133 137.748 83.7789 137.855C83.7445 137.962 83.6797 138.057 83.5923 138.128C83.505 138.199 83.399 138.243 83.2872 138.254Z" fill="#263238"/>
<path d="M78.6161 149.15C78.8444 149.282 79.099 149.484 79.38 149.431C79.667 149.356 79.9339 149.218 80.1614 149.027C80.0906 149.209 79.9713 149.369 79.8166 149.488C79.6618 149.607 79.4774 149.682 79.2834 149.703C79.1165 149.699 78.9544 149.647 78.816 149.554C78.6776 149.46 78.5687 149.33 78.502 149.177C78.502 149.177 78.581 149.133 78.6161 149.15Z" fill="#263238"/>
<path d="M78.8269 146.63C79.1012 146.885 79.4255 147.08 79.7793 147.202C80.133 147.325 80.5084 147.372 80.8814 147.342C81.2088 147.323 81.5314 147.255 81.8384 147.14L82.014 147.069C82.0697 147.053 82.1229 147.03 82.1721 146.999C82.2111 146.981 82.2432 146.951 82.2638 146.913C82.2843 146.875 82.2922 146.831 82.2862 146.788C82.2936 146.766 82.2936 146.741 82.2862 146.718V146.648C82.1457 146.051 81.856 145.164 81.856 145.164C82.1018 145.217 83.331 145.428 83.2345 145.164C82.4709 142.507 81.4352 139.935 80.1439 137.49C80.1439 137.411 79.9771 137.49 80.0122 137.543C80.7058 140.002 81.8297 142.328 82.5672 144.787C82.1243 144.705 81.6718 144.687 81.2238 144.734C81.1536 144.778 81.8209 146.437 81.8648 146.709C81.3918 146.885 80.8881 146.963 80.3842 146.939C79.8802 146.915 79.3863 146.789 78.9323 146.569C78.8093 146.516 78.7654 146.587 78.8269 146.63Z" fill="#263238"/>
<path d="M81.4082 146.929C81.1941 147.437 80.8524 147.882 80.4161 148.22C80.1612 148.405 79.8533 148.504 79.5381 148.501C78.8796 148.501 78.7215 147.939 78.704 147.421C78.7019 147.149 78.7313 146.878 78.7918 146.613C79.6065 146.999 80.5249 147.11 81.4082 146.929Z" fill="#263238"/>
<path d="M80.416 148.22C80.1611 148.405 79.8532 148.504 79.538 148.501C78.8795 148.501 78.7214 147.939 78.7039 147.421C79.0376 147.338 79.3897 147.372 79.7013 147.517C80.013 147.663 80.2652 147.911 80.416 148.22Z" fill="#FF99BA"/>
<path d="M68.484 145.673C69.8449 145.63 69.9854 141.45 69.8976 139.887C69.8186 138.518 68.8528 134.4 68.8177 134.11C68.7826 133.82 75.3939 135.778 78.1772 133.812C80.9604 131.845 82.0755 128.342 81.6892 127.033C81.3028 125.725 76.2982 123.75 72.9092 124.733C69.5201 125.716 66.4734 131.485 66.4734 131.485C66.8063 130.68 67.0735 129.849 67.2724 129C66.7336 129.332 66.285 129.792 65.9665 130.339C65.6479 130.885 65.4692 131.502 65.4462 132.135C65.4462 132.135 65.2091 130.071 65.0335 130.089C64.8579 130.106 63.7516 132.328 64.5594 133.452C64.5594 133.452 63.2073 135.787 63.6814 137.684C64.1555 139.58 66.851 145.726 68.484 145.673Z" fill="#263238"/>
<path d="M80.1087 132.407C79.3604 133.215 78.4964 133.907 77.545 134.461C76.4415 134.948 75.2362 135.159 74.033 135.076C72.8308 135.022 71.6451 134.776 70.521 134.347C69.5288 133.978 68.5718 133.469 67.5533 133.162C67.2987 133.092 67.1582 133.469 67.3514 133.618C69.3989 135.081 71.8593 135.853 74.3754 135.822C75.5478 135.805 76.6955 135.482 77.7054 134.886C78.7154 134.291 79.5527 133.442 80.1351 132.424C80.1351 132.424 80.1263 132.389 80.1087 132.407Z" fill="#263238"/>
<path d="M69.1602 144.997C69.1602 144.997 66.0345 141.635 64.4717 142.802C62.9088 143.97 65.6218 149.098 67.7115 149.554C67.9732 149.628 68.2472 149.649 68.5171 149.616C68.7871 149.582 69.0476 149.495 69.2833 149.359C69.519 149.223 69.7251 149.041 69.8894 148.825C70.0538 148.608 70.173 148.36 70.2401 148.097L69.1602 144.997Z" fill="#DD6A57"/>
<path d="M65.2881 144.251V144.304C65.9725 144.538 66.5999 144.915 67.1293 145.408C67.6588 145.901 68.0785 146.5 68.3611 147.166C68.2616 147.038 68.1353 146.933 67.991 146.858C67.8468 146.784 67.688 146.742 67.5257 146.735C67.3635 146.728 67.2018 146.757 67.0519 146.819C66.902 146.882 66.7675 146.976 66.6578 147.096C66.6578 147.096 66.6578 147.175 66.6578 147.166C66.8924 147.054 67.1561 147.017 67.4125 147.061C67.6689 147.105 67.9052 147.228 68.0889 147.412C68.3938 147.718 68.6646 148.057 68.8967 148.422C68.9757 148.536 69.1952 148.422 69.1249 148.307C68.9406 146.455 67.2197 144.163 65.2881 144.251Z" fill="#263238"/>
<path d="M77.9576 157.922L75.1919 164.586L66.9651 156.025L64.5769 158.712C64.5769 158.712 72.5579 172.268 72.6194 171.662L75.4465 165.92L79.38 169.994L79.178 159.915L77.9576 157.922Z" fill="#EBEBEB"/>
<path d="M79.5644 164.989C79.4679 163.321 79.424 161.644 79.2571 159.994C79.2571 159.932 79.1606 159.906 79.1518 159.994C78.7918 161.592 79.1518 167.948 79.1518 169.476C78.985 169.3 75.4993 165.903 75.4642 165.964C74.8584 166.842 72.7775 171.048 72.637 171.434C71.3727 169.283 66.5349 161.451 65.0335 159.414C65.0245 159.404 65.0125 159.398 64.9995 159.396C64.9865 159.393 64.9731 159.395 64.9612 159.401C64.9494 159.407 64.9398 159.417 64.9338 159.429C64.9279 159.44 64.9259 159.454 64.9282 159.467C66.0432 161.741 72.4526 172.277 72.5492 172.25C73.6406 170.266 74.6283 168.226 75.5081 166.14C76.0963 166.877 79.6083 170.714 79.6259 170.459C79.6976 168.636 79.6771 166.811 79.5644 164.989Z" fill="#263238"/>
</svg>
