<svg width="382" height="437" viewBox="0 0 382 437" fill="none" xmlns="http://www.w3.org/2000/svg">
<path d="M261.6 168.664V168.676V246.2L310.966 287.114L310.646 287.499L310.966 287.115L339.256 310.58L338.937 310.965L339.256 310.58C357.184 325.46 371.423 343.65 381.5 363.922V101.886C381.5 46.1887 336.306 1.03998 280.551 1.03998H0.5V436.04H120.4V307.695V306.631L121.22 307.311L161.744 340.95L276.358 436.04H381.499C381.426 414.412 376.584 393.306 367.601 374.21L367.601 374.209C358.548 354.935 345.259 337.578 328.464 323.663L328.783 323.278L328.464 323.663L260.78 267.536L261.1 267.151L260.78 267.536L244.907 254.367L161.075 184.827L161.074 184.826L159.057 183.147L261.6 168.664ZM261.6 168.664L261.599 168.652M261.6 168.664L261.599 168.652M261.599 168.652C260.301 142.019 238.245 120.818 211.278 120.818H177.604C156.984 120.818 137.034 113.618 121.189 100.463L120.37 99.7825M261.599 168.652L120.37 99.7825M120.37 99.7825V100.847M120.37 99.7825V100.847M120.37 100.847C120.37 132.649 134.535 162.824 159.056 183.146L120.37 100.847Z" stroke="url(#paint0_linear_184_2)"/>
<defs>
<linearGradient id="paint0_linear_184_2" x1="0" y1="0.539978" x2="282.145" y2="352.359" gradientUnits="userSpaceOnUse">
<stop stop-color="#00A4FF"/>
<stop offset="1" stop-color="#00A4FF" stop-opacity="0"/>
</linearGradient>
</defs>
</svg>
